%TF.GenerationSoftware,KiCad,Pcbnew,(6.0.7)*%
%TF.CreationDate,2023-03-27T09:38:57-04:00*%
%TF.ProjectId,RC_PCB,52435f50-4342-42e6-9b69-6361645f7063,rev?*%
%TF.SameCoordinates,Original*%
%TF.FileFunction,Legend,Bot*%
%TF.FilePolarity,Positive*%
%FSLAX46Y46*%
G04 Gerber Fmt 4.6, Leading zero omitted, Abs format (unit mm)*
G04 Created by KiCad (PCBNEW (6.0.7)) date 2023-03-27 09:38:57*
%MOMM*%
%LPD*%
G01*
G04 APERTURE LIST*
G04 APERTURE END LIST*
%TO.C,U2*%
G36*
X151154364Y-120735581D02*
G01*
X151309149Y-120893520D01*
X151528235Y-121147031D01*
X152219768Y-121885098D01*
X152978989Y-122505165D01*
X153815753Y-123012992D01*
X154740288Y-123414785D01*
X155762817Y-123716748D01*
X156040061Y-123762233D01*
X156447861Y-123794999D01*
X156920981Y-123809261D01*
X157419115Y-123805405D01*
X157901961Y-123783816D01*
X158329212Y-123744881D01*
X158660563Y-123688986D01*
X159637370Y-123394932D01*
X160577352Y-122974056D01*
X161437937Y-122434795D01*
X162223113Y-121774634D01*
X162936863Y-120991058D01*
X163053430Y-120855580D01*
X163173855Y-120740597D01*
X163237364Y-120713232D01*
X163241279Y-120730187D01*
X163191374Y-120837600D01*
X163067373Y-121015918D01*
X162888168Y-121241974D01*
X162672656Y-121492602D01*
X162439729Y-121744638D01*
X162208285Y-121974916D01*
X161812141Y-122319756D01*
X161018417Y-122875352D01*
X160149499Y-123331590D01*
X159234571Y-123674168D01*
X158302817Y-123888786D01*
X158155519Y-123910742D01*
X157476918Y-123975667D01*
X156821156Y-123968983D01*
X156114828Y-123890757D01*
X155483654Y-123768227D01*
X154513648Y-123467300D01*
X153600836Y-123043380D01*
X152758115Y-122503975D01*
X151998385Y-121856590D01*
X151334543Y-121108732D01*
X151318040Y-121087191D01*
X151145717Y-120849019D01*
X151065658Y-120711948D01*
X151070870Y-120674596D01*
X151154364Y-120735581D01*
G37*
G36*
X150611268Y-119201127D02*
G01*
X150611268Y-117147780D01*
X149931726Y-117103142D01*
X149514445Y-117060862D01*
X149112177Y-116970125D01*
X148805871Y-116825110D01*
X148571647Y-116613785D01*
X148385626Y-116324118D01*
X148263904Y-115949696D01*
X148259532Y-115642385D01*
X148990814Y-115642385D01*
X149025357Y-115921281D01*
X149165547Y-116173791D01*
X149394930Y-116356931D01*
X149398826Y-116358862D01*
X149707407Y-116450741D01*
X150128310Y-116482142D01*
X150611268Y-116482253D01*
X150611268Y-114979718D01*
X150128310Y-114979829D01*
X149960913Y-114984578D01*
X149539719Y-115054195D01*
X149233879Y-115206544D01*
X149044397Y-115441197D01*
X148990814Y-115642385D01*
X148259532Y-115642385D01*
X148258078Y-115540147D01*
X148370075Y-115148144D01*
X148594552Y-114812345D01*
X148656019Y-114748909D01*
X148814182Y-114607877D01*
X148980899Y-114506504D01*
X149183076Y-114437356D01*
X149447617Y-114392995D01*
X149801426Y-114365986D01*
X150271409Y-114348894D01*
X151326761Y-114320178D01*
X151326761Y-119201127D01*
X150611268Y-119201127D01*
G37*
G36*
X163051898Y-114407744D02*
G01*
X163270943Y-114420962D01*
X163389130Y-114459510D01*
X163440000Y-114532535D01*
X163455987Y-114577047D01*
X163522919Y-114745493D01*
X163629737Y-115005244D01*
X163765758Y-115330438D01*
X163920298Y-115695211D01*
X164065502Y-116036138D01*
X164352252Y-116711005D01*
X164614009Y-117329216D01*
X164844472Y-117875809D01*
X165037341Y-118335820D01*
X165186315Y-118694284D01*
X165285091Y-118936239D01*
X165422582Y-119279520D01*
X164983486Y-119258211D01*
X164544390Y-119236901D01*
X164240786Y-118521408D01*
X164108476Y-118209199D01*
X163927091Y-117780437D01*
X163736201Y-117328593D01*
X163560274Y-116911549D01*
X163407995Y-116550399D01*
X163215352Y-116093914D01*
X163028250Y-115650916D01*
X162871683Y-115280604D01*
X162763814Y-115021440D01*
X162658227Y-114757499D01*
X162586467Y-114565709D01*
X162560000Y-114475674D01*
X162604367Y-114445222D01*
X162757042Y-114417866D01*
X162980951Y-114407324D01*
X163051898Y-114407744D01*
G37*
G36*
X151826201Y-120777639D02*
G01*
X152027950Y-120953764D01*
X152317937Y-121233751D01*
X152496805Y-121407985D01*
X153211405Y-122013757D01*
X153954894Y-122495578D01*
X154753671Y-122868687D01*
X155634134Y-123148326D01*
X156098906Y-123239201D01*
X156756492Y-123300881D01*
X157449806Y-123304984D01*
X158125972Y-123251634D01*
X158732113Y-123140958D01*
X159601590Y-122861852D01*
X160483355Y-122437210D01*
X161296052Y-121887308D01*
X162038828Y-121212642D01*
X162204073Y-121045199D01*
X162395884Y-120864230D01*
X162535142Y-120749076D01*
X162599544Y-120719356D01*
X162601898Y-120722662D01*
X162570799Y-120803177D01*
X162453252Y-120954543D01*
X162269644Y-121156647D01*
X162040363Y-121389374D01*
X161785795Y-121632610D01*
X161526327Y-121866240D01*
X161282348Y-122070151D01*
X161074244Y-122224229D01*
X160450402Y-122599960D01*
X159764729Y-122933608D01*
X159085754Y-123188986D01*
X158453994Y-123348706D01*
X158387167Y-123358166D01*
X158137069Y-123377400D01*
X157794877Y-123389937D01*
X157396828Y-123394741D01*
X156979155Y-123390781D01*
X156609611Y-123380705D01*
X156201573Y-123359795D01*
X155876742Y-123327268D01*
X155600527Y-123279362D01*
X155338334Y-123212314D01*
X154614455Y-122958236D01*
X153725727Y-122518258D01*
X152911088Y-121963466D01*
X152187121Y-121303902D01*
X151973586Y-121073155D01*
X151786382Y-120853135D01*
X151701816Y-120729255D01*
X151716289Y-120703446D01*
X151826201Y-120777639D01*
G37*
G36*
X157789667Y-108540785D02*
G01*
X158290825Y-108578091D01*
X158696338Y-108637954D01*
X159731816Y-108914082D01*
X160749929Y-109320526D01*
X161688787Y-109842109D01*
X162542716Y-110475151D01*
X163306045Y-111215972D01*
X163973099Y-112060892D01*
X164060958Y-112189604D01*
X164208715Y-112412281D01*
X164310699Y-112574610D01*
X164348732Y-112648172D01*
X164323647Y-112701783D01*
X164241662Y-112653699D01*
X164113978Y-112501252D01*
X163952254Y-112255976D01*
X163765260Y-111984671D01*
X163472893Y-111622874D01*
X163125466Y-111235914D01*
X162754072Y-110856758D01*
X162389809Y-110518375D01*
X162063770Y-110253734D01*
X161747634Y-110031390D01*
X160956453Y-109555806D01*
X160141715Y-109187503D01*
X159268732Y-108912296D01*
X158302817Y-108716003D01*
X158214747Y-108702653D01*
X157194335Y-108625100D01*
X156171353Y-108684090D01*
X155161074Y-108874779D01*
X154178770Y-109192320D01*
X153239710Y-109631870D01*
X152359168Y-110188583D01*
X151552414Y-110857614D01*
X151496306Y-110911961D01*
X151241739Y-111180123D01*
X150958458Y-111504600D01*
X150678949Y-111846028D01*
X150435697Y-112165042D01*
X150261187Y-112422277D01*
X150212053Y-112497051D01*
X150104881Y-112620147D01*
X150031807Y-112649999D01*
X150022821Y-112636005D01*
X150051754Y-112529520D01*
X150154369Y-112344557D01*
X150314859Y-112102976D01*
X150517417Y-111826635D01*
X150746238Y-111537395D01*
X150985513Y-111257113D01*
X151219437Y-111007648D01*
X151704644Y-110554416D01*
X152576964Y-109889427D01*
X153518248Y-109349280D01*
X154531499Y-108932359D01*
X155619718Y-108637047D01*
X155724310Y-108617389D01*
X156160187Y-108564337D01*
X156679563Y-108533895D01*
X157237652Y-108526048D01*
X157789667Y-108540785D01*
G37*
G36*
X158025103Y-107514809D02*
G01*
X159144616Y-107685712D01*
X160236523Y-107994311D01*
X161293838Y-108439577D01*
X162309578Y-109020479D01*
X162705356Y-109303167D01*
X163196709Y-109707101D01*
X163691327Y-110162426D01*
X164157524Y-110638214D01*
X164563615Y-111103536D01*
X164877913Y-111527465D01*
X165218313Y-112046197D01*
X167496901Y-112046197D01*
X167496901Y-112761690D01*
X164718753Y-112761690D01*
X164490588Y-112390874D01*
X164397385Y-112246910D01*
X164157948Y-111910848D01*
X163867820Y-111533914D01*
X163559060Y-111157117D01*
X163263728Y-110821470D01*
X162870027Y-110437720D01*
X162246849Y-109943792D01*
X161539359Y-109484822D01*
X160781072Y-109080089D01*
X160005505Y-108748873D01*
X159246174Y-108510453D01*
X158813816Y-108414492D01*
X157749524Y-108279189D01*
X156675239Y-108279696D01*
X155606718Y-108413462D01*
X154559716Y-108677931D01*
X153549989Y-109070551D01*
X152593290Y-109588768D01*
X152199976Y-109863411D01*
X151724196Y-110251981D01*
X151240718Y-110696555D01*
X150782379Y-111165122D01*
X150382014Y-111625672D01*
X150072459Y-112046197D01*
X150001780Y-112153782D01*
X149844629Y-112384079D01*
X149719593Y-112555268D01*
X149648861Y-112636433D01*
X149627287Y-112643960D01*
X149483909Y-112660016D01*
X149235877Y-112670668D01*
X148910813Y-112675028D01*
X148536338Y-112672208D01*
X147498873Y-112654366D01*
X147477066Y-112314507D01*
X147455258Y-111974648D01*
X149159287Y-111974648D01*
X149480468Y-111491690D01*
X149654854Y-111245850D01*
X150059112Y-110750778D01*
X150531715Y-110245452D01*
X151035556Y-109768431D01*
X151533527Y-109358277D01*
X151732421Y-109215179D01*
X152241481Y-108890994D01*
X152813223Y-108572118D01*
X153404685Y-108280357D01*
X153972907Y-108037514D01*
X154474930Y-107865394D01*
X154570778Y-107838576D01*
X155731198Y-107590211D01*
X156884968Y-107482632D01*
X158025103Y-107514809D01*
G37*
G36*
X158059677Y-109996680D02*
G01*
X158976246Y-110173144D01*
X159851753Y-110467326D01*
X160663944Y-110877713D01*
X160691352Y-110894498D01*
X160971017Y-111082890D01*
X161281705Y-111317042D01*
X161602543Y-111578268D01*
X161912660Y-111847881D01*
X162191181Y-112107196D01*
X162417235Y-112337524D01*
X162569950Y-112520181D01*
X162628452Y-112636479D01*
X162628158Y-112657778D01*
X162607149Y-112680500D01*
X162545365Y-112647794D01*
X162428206Y-112547727D01*
X162241072Y-112368366D01*
X161969364Y-112097779D01*
X161769910Y-111904103D01*
X161477337Y-111638561D01*
X161202543Y-111407983D01*
X160985620Y-111247040D01*
X160263238Y-110826169D01*
X159356155Y-110435771D01*
X158432126Y-110180794D01*
X157501449Y-110060218D01*
X156574421Y-110073023D01*
X155661342Y-110218190D01*
X154772508Y-110494696D01*
X153918217Y-110901524D01*
X153108769Y-111437652D01*
X152354459Y-112102060D01*
X152344147Y-112112427D01*
X152115395Y-112333862D01*
X151928446Y-112499201D01*
X151802325Y-112592663D01*
X151756056Y-112598465D01*
X151757171Y-112591270D01*
X151820251Y-112491936D01*
X151965963Y-112320888D01*
X152174560Y-112100128D01*
X152426297Y-111851658D01*
X152569710Y-111717286D01*
X153177100Y-111214292D01*
X153808239Y-110806642D01*
X154514476Y-110460119D01*
X155286146Y-110188702D01*
X156192373Y-110002947D01*
X157124301Y-109939444D01*
X158059677Y-109996680D01*
G37*
G36*
X161549030Y-118078937D02*
G01*
X161741996Y-118548574D01*
X161878930Y-118892452D01*
X161960558Y-119112368D01*
X161987606Y-119210119D01*
X161965734Y-119231842D01*
X161839344Y-119261177D01*
X161637901Y-119272676D01*
X161288196Y-119272676D01*
X161007479Y-118575070D01*
X160726761Y-117877465D01*
X159691451Y-117857754D01*
X158656141Y-117838044D01*
X158377767Y-118465923D01*
X158308407Y-118620461D01*
X158186630Y-118882570D01*
X158088794Y-119081523D01*
X158031358Y-119183239D01*
X158001414Y-119207169D01*
X157852024Y-119254048D01*
X157642356Y-119272676D01*
X157525624Y-119271676D01*
X157390640Y-119255808D01*
X157348582Y-119203549D01*
X157366379Y-119093418D01*
X157393494Y-119011187D01*
X157475336Y-118805717D01*
X157593276Y-118532551D01*
X157731882Y-118228213D01*
X157834391Y-118007256D01*
X157947094Y-117759865D01*
X158023967Y-117585551D01*
X158052394Y-117512483D01*
X158052832Y-117510139D01*
X158088312Y-117424139D01*
X158172405Y-117237522D01*
X158231705Y-117109309D01*
X159001228Y-117109309D01*
X159323840Y-117153528D01*
X159426126Y-117165570D01*
X159729153Y-117188602D01*
X160026812Y-117197746D01*
X160407174Y-117197746D01*
X160311877Y-116929437D01*
X160199005Y-116626572D01*
X160067827Y-116303413D01*
X159940374Y-116014488D01*
X159828227Y-115784753D01*
X159742967Y-115639166D01*
X159696176Y-115602683D01*
X159659624Y-115665277D01*
X159574529Y-115837034D01*
X159457744Y-116086478D01*
X159323219Y-116384373D01*
X159001228Y-117109309D01*
X158231705Y-117109309D01*
X158293473Y-116975762D01*
X158439879Y-116664334D01*
X158448829Y-116645418D01*
X158600047Y-116322011D01*
X158730225Y-116036841D01*
X158825743Y-115820168D01*
X158872977Y-115702251D01*
X158886132Y-115666084D01*
X158957254Y-115499513D01*
X159067730Y-115258821D01*
X159199875Y-114982929D01*
X159218059Y-114945733D01*
X159348346Y-114685558D01*
X159442933Y-114526576D01*
X159525629Y-114443946D01*
X159620241Y-114412831D01*
X159750579Y-114408392D01*
X160020000Y-114409461D01*
X160319312Y-115141773D01*
X160348358Y-115212678D01*
X160499904Y-115579519D01*
X160682377Y-116017539D01*
X160875358Y-116477847D01*
X161058427Y-116911549D01*
X161179330Y-117197746D01*
X161299305Y-117481744D01*
X161549030Y-118078937D01*
G37*
G36*
X165762130Y-116643239D02*
G01*
X165921592Y-117022977D01*
X166137898Y-117539086D01*
X166334055Y-118008268D01*
X166502982Y-118413533D01*
X166637603Y-118737889D01*
X166730837Y-118964347D01*
X166775607Y-119075915D01*
X166849416Y-119272676D01*
X166433376Y-119272676D01*
X166231974Y-119269202D01*
X166078028Y-119246285D01*
X165990347Y-119187349D01*
X165926478Y-119075915D01*
X165869161Y-118947816D01*
X165750237Y-118673965D01*
X165584525Y-118286959D01*
X165376575Y-117797477D01*
X165130936Y-117216199D01*
X164852155Y-116553803D01*
X164691134Y-116172021D01*
X164518118Y-115764430D01*
X164358715Y-115391317D01*
X164233697Y-115101464D01*
X164192793Y-115006455D01*
X164089720Y-114757110D01*
X164017930Y-114568433D01*
X163990986Y-114475408D01*
X164033530Y-114445494D01*
X164184388Y-114417950D01*
X164406723Y-114407324D01*
X164822461Y-114407324D01*
X165762130Y-116643239D01*
G37*
G36*
X157919830Y-108973615D02*
G01*
X157942381Y-108975626D01*
X158984236Y-109139860D01*
X159978767Y-109437611D01*
X160917860Y-109865199D01*
X161793402Y-110418942D01*
X162597278Y-111095162D01*
X162702689Y-111198693D01*
X162975531Y-111484101D01*
X163240248Y-111782711D01*
X163478341Y-112071533D01*
X163671312Y-112327577D01*
X163800660Y-112527852D01*
X163847887Y-112649370D01*
X163840875Y-112685455D01*
X163779122Y-112676183D01*
X163659738Y-112551257D01*
X163490141Y-112317557D01*
X163410902Y-112207608D01*
X163208268Y-111955519D01*
X162960067Y-111670805D01*
X162703099Y-111396527D01*
X162231039Y-110946597D01*
X161518227Y-110387624D01*
X160750392Y-109927634D01*
X159901810Y-109551900D01*
X158946761Y-109245693D01*
X158758193Y-109201305D01*
X158250946Y-109125459D01*
X157664956Y-109083395D01*
X157042010Y-109075044D01*
X156423894Y-109100337D01*
X155852394Y-109159205D01*
X155369296Y-109251581D01*
X154608073Y-109488668D01*
X153738860Y-109856001D01*
X152939238Y-110297493D01*
X152661812Y-110490257D01*
X152271416Y-110803197D01*
X151866415Y-111164907D01*
X151480412Y-111543628D01*
X151147007Y-111907602D01*
X150899801Y-112225070D01*
X150836662Y-112316515D01*
X150665514Y-112542313D01*
X150549243Y-112651936D01*
X150479566Y-112653838D01*
X150475741Y-112641964D01*
X150519783Y-112540192D01*
X150640906Y-112360611D01*
X150822814Y-112123810D01*
X151049207Y-111850379D01*
X151303788Y-111560907D01*
X151570259Y-111275983D01*
X152104931Y-110772154D01*
X152933332Y-110152924D01*
X153827659Y-109657992D01*
X154780690Y-109289978D01*
X155785209Y-109051499D01*
X156833995Y-108945172D01*
X157919830Y-108973615D01*
G37*
G36*
X161737183Y-114407523D02*
G01*
X161894097Y-114783057D01*
X161923641Y-114853568D01*
X162027035Y-115099142D01*
X162165769Y-115427619D01*
X162325345Y-115804692D01*
X162491262Y-116196056D01*
X162572535Y-116387633D01*
X162755003Y-116818075D01*
X162946001Y-117269003D01*
X163136329Y-117718668D01*
X163316793Y-118145324D01*
X163478194Y-118527222D01*
X163611335Y-118842614D01*
X163707020Y-119069752D01*
X163756052Y-119186889D01*
X163760832Y-119203835D01*
X163726846Y-119246901D01*
X163595431Y-119263813D01*
X163344348Y-119258438D01*
X162894247Y-119236901D01*
X162685722Y-118736056D01*
X162495343Y-118280189D01*
X162240254Y-117672175D01*
X161955049Y-116994748D01*
X161653579Y-116280800D01*
X161349692Y-115563226D01*
X161263850Y-115359565D01*
X161125421Y-115025151D01*
X161014600Y-114749649D01*
X160941033Y-114557238D01*
X160914366Y-114472099D01*
X160955411Y-114443989D01*
X161104748Y-114417581D01*
X161325775Y-114407423D01*
X161737183Y-114407523D01*
G37*
G36*
X150563616Y-120722835D02*
G01*
X150689948Y-120868891D01*
X150847178Y-121076002D01*
X150896746Y-121144038D01*
X151579728Y-121955261D01*
X152347596Y-122653995D01*
X153191717Y-123235824D01*
X154103455Y-123696328D01*
X155074177Y-124031087D01*
X156095246Y-124235684D01*
X157158028Y-124305698D01*
X158062939Y-124259287D01*
X159086212Y-124081620D01*
X160056253Y-123771143D01*
X160972428Y-123328117D01*
X161834107Y-122752803D01*
X162640657Y-122045461D01*
X162760224Y-121923696D01*
X163026281Y-121634508D01*
X163269282Y-121348440D01*
X163448372Y-121112670D01*
X163567561Y-120945919D01*
X163718672Y-120765441D01*
X163814427Y-120697551D01*
X163847887Y-120748572D01*
X163806314Y-120844632D01*
X163684362Y-121024345D01*
X163501575Y-121261103D01*
X163277644Y-121531195D01*
X163032258Y-121810911D01*
X162785110Y-122076540D01*
X162555888Y-122304371D01*
X162016234Y-122771826D01*
X161159835Y-123364881D01*
X160241947Y-123830489D01*
X159256295Y-124171652D01*
X158196606Y-124391374D01*
X157922124Y-124428841D01*
X157478631Y-124471918D01*
X157075110Y-124479901D01*
X156651999Y-124452764D01*
X156149740Y-124390482D01*
X155172047Y-124196475D01*
X154179424Y-123869255D01*
X153258019Y-123419023D01*
X152403283Y-122843525D01*
X151610665Y-122140506D01*
X151482529Y-122008841D01*
X151212051Y-121713557D01*
X150962332Y-121419505D01*
X150748991Y-121147132D01*
X150587645Y-120916888D01*
X150493911Y-120749219D01*
X150483407Y-120664574D01*
X150490578Y-120663166D01*
X150563616Y-120722835D01*
G37*
G36*
X150042214Y-121281025D02*
G01*
X150125557Y-121401698D01*
X150558788Y-121958291D01*
X151067683Y-122521890D01*
X151609087Y-123047081D01*
X152139843Y-123488448D01*
X152535522Y-123757677D01*
X153110498Y-124085347D01*
X153736386Y-124387267D01*
X154362961Y-124639582D01*
X154940000Y-124818438D01*
X154986081Y-124829873D01*
X156095937Y-125036314D01*
X157187164Y-125103384D01*
X158273031Y-125031087D01*
X159366805Y-124819426D01*
X160162530Y-124570467D01*
X161126849Y-124139009D01*
X162034012Y-123585806D01*
X162870371Y-122920659D01*
X163622277Y-122153372D01*
X164276083Y-121293745D01*
X164668503Y-120703662D01*
X167496901Y-120703662D01*
X167496901Y-121419155D01*
X165219349Y-121419155D01*
X165013122Y-121687465D01*
X164961386Y-121755653D01*
X164808973Y-121964849D01*
X164693348Y-122134648D01*
X164690293Y-122139436D01*
X164519951Y-122370578D01*
X164271853Y-122663173D01*
X163975291Y-122985366D01*
X163659559Y-123305305D01*
X163353950Y-123591136D01*
X162664869Y-124142702D01*
X161719716Y-124740943D01*
X160696641Y-125230761D01*
X159611885Y-125604610D01*
X158481690Y-125854943D01*
X158383941Y-125866732D01*
X158112509Y-125883945D01*
X157752472Y-125894609D01*
X157339086Y-125897873D01*
X156907606Y-125892888D01*
X156796311Y-125890313D01*
X156325264Y-125874548D01*
X155952252Y-125850579D01*
X155639865Y-125814292D01*
X155350692Y-125761573D01*
X155047324Y-125688309D01*
X154576466Y-125560401D01*
X154175112Y-125439072D01*
X153828099Y-125316250D01*
X153491400Y-125176284D01*
X153120986Y-125003522D01*
X152901888Y-124894425D01*
X151901183Y-124306486D01*
X151003615Y-123622036D01*
X150212167Y-122843590D01*
X149529820Y-121973662D01*
X149100872Y-121347606D01*
X147463099Y-121347606D01*
X147463099Y-120632113D01*
X149605887Y-120632113D01*
X150042214Y-121281025D01*
G37*
G36*
X157812623Y-109463348D02*
G01*
X158380725Y-109518761D01*
X158865103Y-109606092D01*
X158912581Y-109617721D01*
X159839804Y-109916403D01*
X160728751Y-110336206D01*
X161551651Y-110861908D01*
X162280732Y-111478287D01*
X162433753Y-111631146D01*
X162682657Y-111893416D01*
X162911579Y-112149601D01*
X163100223Y-112375922D01*
X163228293Y-112548598D01*
X163275493Y-112643848D01*
X163265041Y-112685763D01*
X163191668Y-112673840D01*
X163053948Y-112548280D01*
X162858746Y-112314507D01*
X162771580Y-112204343D01*
X162101793Y-111485837D01*
X161344789Y-110872228D01*
X160514764Y-110368773D01*
X159625914Y-109980730D01*
X158692437Y-109713357D01*
X157728529Y-109571910D01*
X156748385Y-109561648D01*
X155766203Y-109687827D01*
X155024477Y-109871027D01*
X154181779Y-110180694D01*
X153400143Y-110593026D01*
X152663656Y-111118127D01*
X151956406Y-111766098D01*
X151262480Y-112547042D01*
X151247248Y-112565350D01*
X151151297Y-112652548D01*
X151114493Y-112625960D01*
X151139452Y-112551063D01*
X151235473Y-112390312D01*
X151379271Y-112196665D01*
X152003350Y-111512436D01*
X152785948Y-110849219D01*
X153649608Y-110303915D01*
X154594230Y-109876584D01*
X155619718Y-109567287D01*
X156055278Y-109493987D01*
X156604970Y-109450424D01*
X157205728Y-109440390D01*
X157812623Y-109463348D01*
G37*
G36*
X150083494Y-120752200D02*
G01*
X150231302Y-120932844D01*
X150439342Y-121218290D01*
X150839102Y-121740263D01*
X151525465Y-122470504D01*
X152293643Y-123119559D01*
X153118296Y-123666831D01*
X153974085Y-124091720D01*
X154287773Y-124215018D01*
X155342574Y-124536124D01*
X156398543Y-124714444D01*
X157453072Y-124750015D01*
X158503557Y-124642871D01*
X159547391Y-124393050D01*
X160581968Y-124000587D01*
X160631537Y-123977964D01*
X161351756Y-123589128D01*
X162064266Y-123100082D01*
X162735343Y-122538846D01*
X163331263Y-121933436D01*
X163818301Y-121311870D01*
X163842873Y-121275805D01*
X164067119Y-120960423D01*
X164224874Y-120768325D01*
X164318094Y-120697423D01*
X164348732Y-120745631D01*
X164345021Y-120766071D01*
X164276790Y-120899118D01*
X164136646Y-121108479D01*
X163943001Y-121370540D01*
X163714262Y-121661689D01*
X163468840Y-121958314D01*
X163225144Y-122236802D01*
X163001582Y-122473540D01*
X162918048Y-122555978D01*
X162142604Y-123214660D01*
X161274964Y-123782170D01*
X160340678Y-124245614D01*
X159365295Y-124592097D01*
X158374366Y-124808727D01*
X158288774Y-124815638D01*
X158064173Y-124822301D01*
X157745735Y-124824960D01*
X157362468Y-124823436D01*
X156943380Y-124817550D01*
X156649920Y-124810330D01*
X156098233Y-124783013D01*
X155632769Y-124734645D01*
X155214917Y-124658981D01*
X154806067Y-124549771D01*
X154367606Y-124400770D01*
X154351999Y-124395028D01*
X153364679Y-123959052D01*
X152449218Y-123409774D01*
X151618379Y-122757199D01*
X150884924Y-122011332D01*
X150261616Y-121182176D01*
X150209404Y-121100982D01*
X150058873Y-120850750D01*
X149991539Y-120709987D01*
X150001659Y-120677526D01*
X150083494Y-120752200D01*
G37*
G36*
X152671897Y-114335791D02*
G01*
X152778112Y-114340118D01*
X152869900Y-114362971D01*
X152964463Y-114419965D01*
X153079002Y-114526717D01*
X153230721Y-114698845D01*
X153436822Y-114951963D01*
X153714506Y-115301690D01*
X153920316Y-115558793D01*
X154152635Y-115841460D01*
X154344172Y-116066012D01*
X154479251Y-116214159D01*
X154542198Y-116267606D01*
X154579339Y-116240150D01*
X154695885Y-116118025D01*
X154873088Y-115915087D01*
X155094837Y-115649930D01*
X155345021Y-115341146D01*
X156084789Y-114414686D01*
X156460423Y-114411005D01*
X156836056Y-114407324D01*
X156835869Y-115355352D01*
X156834011Y-115671104D01*
X156827531Y-116143999D01*
X156817242Y-116678173D01*
X156804019Y-117229101D01*
X156788737Y-117752253D01*
X156741794Y-119201127D01*
X156051471Y-119201127D01*
X156032355Y-117406583D01*
X156013240Y-115612040D01*
X155333313Y-116452662D01*
X155213902Y-116599168D01*
X154982082Y-116876906D01*
X154785884Y-117103215D01*
X154643069Y-117257862D01*
X154571398Y-117320614D01*
X154547190Y-117320293D01*
X154482454Y-117281581D01*
X154380366Y-117184871D01*
X154231064Y-117018990D01*
X154024688Y-116772761D01*
X153751375Y-116435008D01*
X153401264Y-115994557D01*
X153043944Y-115542635D01*
X153043944Y-119201127D01*
X152256901Y-119201127D01*
X152257089Y-118217324D01*
X152258892Y-117897404D01*
X152265344Y-117413529D01*
X152275639Y-116869692D01*
X152288892Y-116311522D01*
X152304221Y-115784648D01*
X152351164Y-114335775D01*
X152650516Y-114335775D01*
X152671897Y-114335791D01*
G37*
%TD*%
M02*
