%TF.GenerationSoftware,KiCad,Pcbnew,(6.0.7-1)-1*%
%TF.CreationDate,2023-03-26T15:29:43-04:00*%
%TF.ProjectId,RC_PCB,52435f50-4342-42e6-9b69-6361645f7063,rev?*%
%TF.SameCoordinates,Original*%
%TF.FileFunction,Legend,Top*%
%TF.FilePolarity,Positive*%
%FSLAX46Y46*%
G04 Gerber Fmt 4.6, Leading zero omitted, Abs format (unit mm)*
G04 Created by KiCad (PCBNEW (6.0.7-1)-1) date 2023-03-26 15:29:43*
%MOMM*%
%LPD*%
G01*
G04 APERTURE LIST*
%ADD10C,0.150000*%
%ADD11C,0.152400*%
%ADD12C,0.120000*%
%ADD13C,0.127000*%
%ADD14C,0.200000*%
%ADD15C,0.100000*%
G04 APERTURE END LIST*
D10*
%TO.C,U3*%
X157478095Y-124338380D02*
X157478095Y-125147904D01*
X157525714Y-125243142D01*
X157573333Y-125290761D01*
X157668571Y-125338380D01*
X157859047Y-125338380D01*
X157954285Y-125290761D01*
X158001904Y-125243142D01*
X158049523Y-125147904D01*
X158049523Y-124338380D01*
X158430476Y-124338380D02*
X159049523Y-124338380D01*
X158716190Y-124719333D01*
X158859047Y-124719333D01*
X158954285Y-124766952D01*
X159001904Y-124814571D01*
X159049523Y-124909809D01*
X159049523Y-125147904D01*
X159001904Y-125243142D01*
X158954285Y-125290761D01*
X158859047Y-125338380D01*
X158573333Y-125338380D01*
X158478095Y-125290761D01*
X158430476Y-125243142D01*
%TO.C,C2*%
X176477142Y-68746666D02*
X176524761Y-68794285D01*
X176572380Y-68937142D01*
X176572380Y-69032380D01*
X176524761Y-69175238D01*
X176429523Y-69270476D01*
X176334285Y-69318095D01*
X176143809Y-69365714D01*
X176000952Y-69365714D01*
X175810476Y-69318095D01*
X175715238Y-69270476D01*
X175620000Y-69175238D01*
X175572380Y-69032380D01*
X175572380Y-68937142D01*
X175620000Y-68794285D01*
X175667619Y-68746666D01*
X175667619Y-68365714D02*
X175620000Y-68318095D01*
X175572380Y-68222857D01*
X175572380Y-67984761D01*
X175620000Y-67889523D01*
X175667619Y-67841904D01*
X175762857Y-67794285D01*
X175858095Y-67794285D01*
X176000952Y-67841904D01*
X176572380Y-68413333D01*
X176572380Y-67794285D01*
%TO.C,C6*%
X111593333Y-65537142D02*
X111545714Y-65584761D01*
X111402857Y-65632380D01*
X111307619Y-65632380D01*
X111164761Y-65584761D01*
X111069523Y-65489523D01*
X111021904Y-65394285D01*
X110974285Y-65203809D01*
X110974285Y-65060952D01*
X111021904Y-64870476D01*
X111069523Y-64775238D01*
X111164761Y-64680000D01*
X111307619Y-64632380D01*
X111402857Y-64632380D01*
X111545714Y-64680000D01*
X111593333Y-64727619D01*
X112450476Y-64632380D02*
X112260000Y-64632380D01*
X112164761Y-64680000D01*
X112117142Y-64727619D01*
X112021904Y-64870476D01*
X111974285Y-65060952D01*
X111974285Y-65441904D01*
X112021904Y-65537142D01*
X112069523Y-65584761D01*
X112164761Y-65632380D01*
X112355238Y-65632380D01*
X112450476Y-65584761D01*
X112498095Y-65537142D01*
X112545714Y-65441904D01*
X112545714Y-65203809D01*
X112498095Y-65108571D01*
X112450476Y-65060952D01*
X112355238Y-65013333D01*
X112164761Y-65013333D01*
X112069523Y-65060952D01*
X112021904Y-65108571D01*
X111974285Y-65203809D01*
%TO.C,R5*%
X121753333Y-58492380D02*
X121420000Y-58016190D01*
X121181904Y-58492380D02*
X121181904Y-57492380D01*
X121562857Y-57492380D01*
X121658095Y-57540000D01*
X121705714Y-57587619D01*
X121753333Y-57682857D01*
X121753333Y-57825714D01*
X121705714Y-57920952D01*
X121658095Y-57968571D01*
X121562857Y-58016190D01*
X121181904Y-58016190D01*
X122658095Y-57492380D02*
X122181904Y-57492380D01*
X122134285Y-57968571D01*
X122181904Y-57920952D01*
X122277142Y-57873333D01*
X122515238Y-57873333D01*
X122610476Y-57920952D01*
X122658095Y-57968571D01*
X122705714Y-58063809D01*
X122705714Y-58301904D01*
X122658095Y-58397142D01*
X122610476Y-58444761D01*
X122515238Y-58492380D01*
X122277142Y-58492380D01*
X122181904Y-58444761D01*
X122134285Y-58397142D01*
%TO.C,JT1*%
X164385714Y-49192380D02*
X164385714Y-49906666D01*
X164338095Y-50049523D01*
X164242857Y-50144761D01*
X164100000Y-50192380D01*
X164004761Y-50192380D01*
X164719047Y-49192380D02*
X165290476Y-49192380D01*
X165004761Y-50192380D02*
X165004761Y-49192380D01*
X166147619Y-50192380D02*
X165576190Y-50192380D01*
X165861904Y-50192380D02*
X165861904Y-49192380D01*
X165766666Y-49335238D01*
X165671428Y-49430476D01*
X165576190Y-49478095D01*
%TO.C,C5*%
X171397142Y-82716666D02*
X171444761Y-82764285D01*
X171492380Y-82907142D01*
X171492380Y-83002380D01*
X171444761Y-83145238D01*
X171349523Y-83240476D01*
X171254285Y-83288095D01*
X171063809Y-83335714D01*
X170920952Y-83335714D01*
X170730476Y-83288095D01*
X170635238Y-83240476D01*
X170540000Y-83145238D01*
X170492380Y-83002380D01*
X170492380Y-82907142D01*
X170540000Y-82764285D01*
X170587619Y-82716666D01*
X170492380Y-81811904D02*
X170492380Y-82288095D01*
X170968571Y-82335714D01*
X170920952Y-82288095D01*
X170873333Y-82192857D01*
X170873333Y-81954761D01*
X170920952Y-81859523D01*
X170968571Y-81811904D01*
X171063809Y-81764285D01*
X171301904Y-81764285D01*
X171397142Y-81811904D01*
X171444761Y-81859523D01*
X171492380Y-81954761D01*
X171492380Y-82192857D01*
X171444761Y-82288095D01*
X171397142Y-82335714D01*
%TO.C,SW4*%
X181386666Y-77064761D02*
X181529523Y-77112380D01*
X181767619Y-77112380D01*
X181862857Y-77064761D01*
X181910476Y-77017142D01*
X181958095Y-76921904D01*
X181958095Y-76826666D01*
X181910476Y-76731428D01*
X181862857Y-76683809D01*
X181767619Y-76636190D01*
X181577142Y-76588571D01*
X181481904Y-76540952D01*
X181434285Y-76493333D01*
X181386666Y-76398095D01*
X181386666Y-76302857D01*
X181434285Y-76207619D01*
X181481904Y-76160000D01*
X181577142Y-76112380D01*
X181815238Y-76112380D01*
X181958095Y-76160000D01*
X182291428Y-76112380D02*
X182529523Y-77112380D01*
X182720000Y-76398095D01*
X182910476Y-77112380D01*
X183148571Y-76112380D01*
X183958095Y-76445714D02*
X183958095Y-77112380D01*
X183720000Y-76064761D02*
X183481904Y-76779047D01*
X184100952Y-76779047D01*
%TO.C,C4*%
X159517142Y-52469166D02*
X159564761Y-52516785D01*
X159612380Y-52659642D01*
X159612380Y-52754880D01*
X159564761Y-52897738D01*
X159469523Y-52992976D01*
X159374285Y-53040595D01*
X159183809Y-53088214D01*
X159040952Y-53088214D01*
X158850476Y-53040595D01*
X158755238Y-52992976D01*
X158660000Y-52897738D01*
X158612380Y-52754880D01*
X158612380Y-52659642D01*
X158660000Y-52516785D01*
X158707619Y-52469166D01*
X158945714Y-51612023D02*
X159612380Y-51612023D01*
X158564761Y-51850119D02*
X159279047Y-52088214D01*
X159279047Y-51469166D01*
%TO.C,C3*%
X184097142Y-68746666D02*
X184144761Y-68794285D01*
X184192380Y-68937142D01*
X184192380Y-69032380D01*
X184144761Y-69175238D01*
X184049523Y-69270476D01*
X183954285Y-69318095D01*
X183763809Y-69365714D01*
X183620952Y-69365714D01*
X183430476Y-69318095D01*
X183335238Y-69270476D01*
X183240000Y-69175238D01*
X183192380Y-69032380D01*
X183192380Y-68937142D01*
X183240000Y-68794285D01*
X183287619Y-68746666D01*
X183192380Y-68413333D02*
X183192380Y-67794285D01*
X183573333Y-68127619D01*
X183573333Y-67984761D01*
X183620952Y-67889523D01*
X183668571Y-67841904D01*
X183763809Y-67794285D01*
X184001904Y-67794285D01*
X184097142Y-67841904D01*
X184144761Y-67889523D01*
X184192380Y-67984761D01*
X184192380Y-68270476D01*
X184144761Y-68365714D01*
X184097142Y-68413333D01*
%TO.C,U4*%
X117263095Y-60417380D02*
X117263095Y-61226904D01*
X117310714Y-61322142D01*
X117358333Y-61369761D01*
X117453571Y-61417380D01*
X117644047Y-61417380D01*
X117739285Y-61369761D01*
X117786904Y-61322142D01*
X117834523Y-61226904D01*
X117834523Y-60417380D01*
X118739285Y-60750714D02*
X118739285Y-61417380D01*
X118501190Y-60369761D02*
X118263095Y-61084047D01*
X118882142Y-61084047D01*
%TO.C,SW2*%
X166146666Y-63094761D02*
X166289523Y-63142380D01*
X166527619Y-63142380D01*
X166622857Y-63094761D01*
X166670476Y-63047142D01*
X166718095Y-62951904D01*
X166718095Y-62856666D01*
X166670476Y-62761428D01*
X166622857Y-62713809D01*
X166527619Y-62666190D01*
X166337142Y-62618571D01*
X166241904Y-62570952D01*
X166194285Y-62523333D01*
X166146666Y-62428095D01*
X166146666Y-62332857D01*
X166194285Y-62237619D01*
X166241904Y-62190000D01*
X166337142Y-62142380D01*
X166575238Y-62142380D01*
X166718095Y-62190000D01*
X167051428Y-62142380D02*
X167289523Y-63142380D01*
X167480000Y-62428095D01*
X167670476Y-63142380D01*
X167908571Y-62142380D01*
X168241904Y-62237619D02*
X168289523Y-62190000D01*
X168384761Y-62142380D01*
X168622857Y-62142380D01*
X168718095Y-62190000D01*
X168765714Y-62237619D01*
X168813333Y-62332857D01*
X168813333Y-62428095D01*
X168765714Y-62570952D01*
X168194285Y-63142380D01*
X168813333Y-63142380D01*
%TO.C,SW3*%
X194086666Y-63094761D02*
X194229523Y-63142380D01*
X194467619Y-63142380D01*
X194562857Y-63094761D01*
X194610476Y-63047142D01*
X194658095Y-62951904D01*
X194658095Y-62856666D01*
X194610476Y-62761428D01*
X194562857Y-62713809D01*
X194467619Y-62666190D01*
X194277142Y-62618571D01*
X194181904Y-62570952D01*
X194134285Y-62523333D01*
X194086666Y-62428095D01*
X194086666Y-62332857D01*
X194134285Y-62237619D01*
X194181904Y-62190000D01*
X194277142Y-62142380D01*
X194515238Y-62142380D01*
X194658095Y-62190000D01*
X194991428Y-62142380D02*
X195229523Y-63142380D01*
X195420000Y-62428095D01*
X195610476Y-63142380D01*
X195848571Y-62142380D01*
X196134285Y-62142380D02*
X196753333Y-62142380D01*
X196420000Y-62523333D01*
X196562857Y-62523333D01*
X196658095Y-62570952D01*
X196705714Y-62618571D01*
X196753333Y-62713809D01*
X196753333Y-62951904D01*
X196705714Y-63047142D01*
X196658095Y-63094761D01*
X196562857Y-63142380D01*
X196277142Y-63142380D01*
X196181904Y-63094761D01*
X196134285Y-63047142D01*
%TO.C,U5*%
X188383095Y-94389880D02*
X188383095Y-95199404D01*
X188430714Y-95294642D01*
X188478333Y-95342261D01*
X188573571Y-95389880D01*
X188764047Y-95389880D01*
X188859285Y-95342261D01*
X188906904Y-95294642D01*
X188954523Y-95199404D01*
X188954523Y-94389880D01*
X189906904Y-94389880D02*
X189430714Y-94389880D01*
X189383095Y-94866071D01*
X189430714Y-94818452D01*
X189525952Y-94770833D01*
X189764047Y-94770833D01*
X189859285Y-94818452D01*
X189906904Y-94866071D01*
X189954523Y-94961309D01*
X189954523Y-95199404D01*
X189906904Y-95294642D01*
X189859285Y-95342261D01*
X189764047Y-95389880D01*
X189525952Y-95389880D01*
X189430714Y-95342261D01*
X189383095Y-95294642D01*
%TO.C,SW1*%
X181386666Y-49124761D02*
X181529523Y-49172380D01*
X181767619Y-49172380D01*
X181862857Y-49124761D01*
X181910476Y-49077142D01*
X181958095Y-48981904D01*
X181958095Y-48886666D01*
X181910476Y-48791428D01*
X181862857Y-48743809D01*
X181767619Y-48696190D01*
X181577142Y-48648571D01*
X181481904Y-48600952D01*
X181434285Y-48553333D01*
X181386666Y-48458095D01*
X181386666Y-48362857D01*
X181434285Y-48267619D01*
X181481904Y-48220000D01*
X181577142Y-48172380D01*
X181815238Y-48172380D01*
X181958095Y-48220000D01*
X182291428Y-48172380D02*
X182529523Y-49172380D01*
X182720000Y-48458095D01*
X182910476Y-49172380D01*
X183148571Y-48172380D01*
X184053333Y-49172380D02*
X183481904Y-49172380D01*
X183767619Y-49172380D02*
X183767619Y-48172380D01*
X183672380Y-48315238D01*
X183577142Y-48410476D01*
X183481904Y-48458095D01*
%TO.C,R2*%
X177633333Y-74492380D02*
X177300000Y-74016190D01*
X177061904Y-74492380D02*
X177061904Y-73492380D01*
X177442857Y-73492380D01*
X177538095Y-73540000D01*
X177585714Y-73587619D01*
X177633333Y-73682857D01*
X177633333Y-73825714D01*
X177585714Y-73920952D01*
X177538095Y-73968571D01*
X177442857Y-74016190D01*
X177061904Y-74016190D01*
X178014285Y-73587619D02*
X178061904Y-73540000D01*
X178157142Y-73492380D01*
X178395238Y-73492380D01*
X178490476Y-73540000D01*
X178538095Y-73587619D01*
X178585714Y-73682857D01*
X178585714Y-73778095D01*
X178538095Y-73920952D01*
X177966666Y-74492380D01*
X178585714Y-74492380D01*
%TO.C,U1*%
X107402380Y-117601904D02*
X108211904Y-117601904D01*
X108307142Y-117554285D01*
X108354761Y-117506666D01*
X108402380Y-117411428D01*
X108402380Y-117220952D01*
X108354761Y-117125714D01*
X108307142Y-117078095D01*
X108211904Y-117030476D01*
X107402380Y-117030476D01*
X108402380Y-116030476D02*
X108402380Y-116601904D01*
X108402380Y-116316190D02*
X107402380Y-116316190D01*
X107545238Y-116411428D01*
X107640476Y-116506666D01*
X107688095Y-116601904D01*
%TO.C,C7*%
X181443333Y-99827142D02*
X181395714Y-99874761D01*
X181252857Y-99922380D01*
X181157619Y-99922380D01*
X181014761Y-99874761D01*
X180919523Y-99779523D01*
X180871904Y-99684285D01*
X180824285Y-99493809D01*
X180824285Y-99350952D01*
X180871904Y-99160476D01*
X180919523Y-99065238D01*
X181014761Y-98970000D01*
X181157619Y-98922380D01*
X181252857Y-98922380D01*
X181395714Y-98970000D01*
X181443333Y-99017619D01*
X181776666Y-98922380D02*
X182443333Y-98922380D01*
X182014761Y-99922380D01*
%TO.C,U2*%
X156932380Y-87121904D02*
X157741904Y-87121904D01*
X157837142Y-87074285D01*
X157884761Y-87026666D01*
X157932380Y-86931428D01*
X157932380Y-86740952D01*
X157884761Y-86645714D01*
X157837142Y-86598095D01*
X157741904Y-86550476D01*
X156932380Y-86550476D01*
X157027619Y-86121904D02*
X156980000Y-86074285D01*
X156932380Y-85979047D01*
X156932380Y-85740952D01*
X156980000Y-85645714D01*
X157027619Y-85598095D01*
X157122857Y-85550476D01*
X157218095Y-85550476D01*
X157360952Y-85598095D01*
X157932380Y-86169523D01*
X157932380Y-85550476D01*
X145920000Y-70674666D02*
X145920000Y-69974666D01*
X146086666Y-69974666D01*
X146186666Y-70008000D01*
X146253333Y-70074666D01*
X146286666Y-70141333D01*
X146320000Y-70274666D01*
X146320000Y-70374666D01*
X146286666Y-70508000D01*
X146253333Y-70574666D01*
X146186666Y-70641333D01*
X146086666Y-70674666D01*
X145920000Y-70674666D01*
X146520000Y-69974666D02*
X146753333Y-70674666D01*
X146986666Y-69974666D01*
X147553333Y-70674666D02*
X147220000Y-70674666D01*
X147220000Y-69974666D01*
X148086666Y-69974666D02*
X147953333Y-69974666D01*
X147886666Y-70008000D01*
X147853333Y-70041333D01*
X147786666Y-70141333D01*
X147753333Y-70274666D01*
X147753333Y-70541333D01*
X147786666Y-70608000D01*
X147820000Y-70641333D01*
X147886666Y-70674666D01*
X148020000Y-70674666D01*
X148086666Y-70641333D01*
X148120000Y-70608000D01*
X148153333Y-70541333D01*
X148153333Y-70374666D01*
X148120000Y-70308000D01*
X148086666Y-70274666D01*
X148020000Y-70241333D01*
X147886666Y-70241333D01*
X147820000Y-70274666D01*
X147786666Y-70308000D01*
X147753333Y-70374666D01*
X148420000Y-70474666D02*
X148753333Y-70474666D01*
X148353333Y-70674666D02*
X148586666Y-69974666D01*
X148820000Y-70674666D01*
X144236666Y-69150666D02*
X144236666Y-68450666D01*
X144470000Y-68950666D01*
X144703333Y-68450666D01*
X144703333Y-69150666D01*
X145036666Y-69150666D02*
X145036666Y-68450666D01*
X145370000Y-69150666D02*
X145370000Y-68450666D01*
X145603333Y-68950666D01*
X145836666Y-68450666D01*
X145836666Y-69150666D01*
X146103333Y-68450666D02*
X146570000Y-69150666D01*
X146570000Y-68450666D02*
X146103333Y-69150666D01*
X147236666Y-69150666D02*
X147003333Y-68817333D01*
X146836666Y-69150666D02*
X146836666Y-68450666D01*
X147103333Y-68450666D01*
X147170000Y-68484000D01*
X147203333Y-68517333D01*
X147236666Y-68584000D01*
X147236666Y-68684000D01*
X147203333Y-68750666D01*
X147170000Y-68784000D01*
X147103333Y-68817333D01*
X146836666Y-68817333D01*
X147436666Y-68450666D02*
X147836666Y-68450666D01*
X147636666Y-69150666D02*
X147636666Y-68450666D01*
X148436666Y-69150666D02*
X148036666Y-69150666D01*
X148236666Y-69150666D02*
X148236666Y-68450666D01*
X148170000Y-68550666D01*
X148103333Y-68617333D01*
X148036666Y-68650666D01*
X148870000Y-68450666D02*
X148936666Y-68450666D01*
X149003333Y-68484000D01*
X149036666Y-68517333D01*
X149070000Y-68584000D01*
X149103333Y-68717333D01*
X149103333Y-68884000D01*
X149070000Y-69017333D01*
X149036666Y-69084000D01*
X149003333Y-69117333D01*
X148936666Y-69150666D01*
X148870000Y-69150666D01*
X148803333Y-69117333D01*
X148770000Y-69084000D01*
X148736666Y-69017333D01*
X148703333Y-68884000D01*
X148703333Y-68717333D01*
X148736666Y-68584000D01*
X148770000Y-68517333D01*
X148803333Y-68484000D01*
X148870000Y-68450666D01*
X149703333Y-68450666D02*
X149570000Y-68450666D01*
X149503333Y-68484000D01*
X149470000Y-68517333D01*
X149403333Y-68617333D01*
X149370000Y-68750666D01*
X149370000Y-69017333D01*
X149403333Y-69084000D01*
X149436666Y-69117333D01*
X149503333Y-69150666D01*
X149636666Y-69150666D01*
X149703333Y-69117333D01*
X149736666Y-69084000D01*
X149770000Y-69017333D01*
X149770000Y-68850666D01*
X149736666Y-68784000D01*
X149703333Y-68750666D01*
X149636666Y-68717333D01*
X149503333Y-68717333D01*
X149436666Y-68750666D01*
X149403333Y-68784000D01*
X149370000Y-68850666D01*
X150036666Y-68517333D02*
X150070000Y-68484000D01*
X150136666Y-68450666D01*
X150303333Y-68450666D01*
X150370000Y-68484000D01*
X150403333Y-68517333D01*
X150436666Y-68584000D01*
X150436666Y-68650666D01*
X150403333Y-68750666D01*
X150003333Y-69150666D01*
X150436666Y-69150666D01*
%TO.C,R4*%
X172553333Y-85162380D02*
X172220000Y-84686190D01*
X171981904Y-85162380D02*
X171981904Y-84162380D01*
X172362857Y-84162380D01*
X172458095Y-84210000D01*
X172505714Y-84257619D01*
X172553333Y-84352857D01*
X172553333Y-84495714D01*
X172505714Y-84590952D01*
X172458095Y-84638571D01*
X172362857Y-84686190D01*
X171981904Y-84686190D01*
X173410476Y-84495714D02*
X173410476Y-85162380D01*
X173172380Y-84114761D02*
X172934285Y-84829047D01*
X173553333Y-84829047D01*
%TO.C,C1*%
X173077142Y-57316666D02*
X173124761Y-57364285D01*
X173172380Y-57507142D01*
X173172380Y-57602380D01*
X173124761Y-57745238D01*
X173029523Y-57840476D01*
X172934285Y-57888095D01*
X172743809Y-57935714D01*
X172600952Y-57935714D01*
X172410476Y-57888095D01*
X172315238Y-57840476D01*
X172220000Y-57745238D01*
X172172380Y-57602380D01*
X172172380Y-57507142D01*
X172220000Y-57364285D01*
X172267619Y-57316666D01*
X173172380Y-56364285D02*
X173172380Y-56935714D01*
X173172380Y-56650000D02*
X172172380Y-56650000D01*
X172315238Y-56745238D01*
X172410476Y-56840476D01*
X172458095Y-56935714D01*
%TO.C,R6*%
X177363333Y-96592380D02*
X177030000Y-96116190D01*
X176791904Y-96592380D02*
X176791904Y-95592380D01*
X177172857Y-95592380D01*
X177268095Y-95640000D01*
X177315714Y-95687619D01*
X177363333Y-95782857D01*
X177363333Y-95925714D01*
X177315714Y-96020952D01*
X177268095Y-96068571D01*
X177172857Y-96116190D01*
X176791904Y-96116190D01*
X178220476Y-95592380D02*
X178030000Y-95592380D01*
X177934761Y-95640000D01*
X177887142Y-95687619D01*
X177791904Y-95830476D01*
X177744285Y-96020952D01*
X177744285Y-96401904D01*
X177791904Y-96497142D01*
X177839523Y-96544761D01*
X177934761Y-96592380D01*
X178125238Y-96592380D01*
X178220476Y-96544761D01*
X178268095Y-96497142D01*
X178315714Y-96401904D01*
X178315714Y-96163809D01*
X178268095Y-96068571D01*
X178220476Y-96020952D01*
X178125238Y-95973333D01*
X177934761Y-95973333D01*
X177839523Y-96020952D01*
X177791904Y-96068571D01*
X177744285Y-96163809D01*
%TO.C,R3*%
X185253333Y-71192380D02*
X184920000Y-70716190D01*
X184681904Y-71192380D02*
X184681904Y-70192380D01*
X185062857Y-70192380D01*
X185158095Y-70240000D01*
X185205714Y-70287619D01*
X185253333Y-70382857D01*
X185253333Y-70525714D01*
X185205714Y-70620952D01*
X185158095Y-70668571D01*
X185062857Y-70716190D01*
X184681904Y-70716190D01*
X185586666Y-70192380D02*
X186205714Y-70192380D01*
X185872380Y-70573333D01*
X186015238Y-70573333D01*
X186110476Y-70620952D01*
X186158095Y-70668571D01*
X186205714Y-70763809D01*
X186205714Y-71001904D01*
X186158095Y-71097142D01*
X186110476Y-71144761D01*
X186015238Y-71192380D01*
X185729523Y-71192380D01*
X185634285Y-71144761D01*
X185586666Y-71097142D01*
%TO.C,R1*%
X172553333Y-57222380D02*
X172220000Y-56746190D01*
X171981904Y-57222380D02*
X171981904Y-56222380D01*
X172362857Y-56222380D01*
X172458095Y-56270000D01*
X172505714Y-56317619D01*
X172553333Y-56412857D01*
X172553333Y-56555714D01*
X172505714Y-56650952D01*
X172458095Y-56698571D01*
X172362857Y-56746190D01*
X171981904Y-56746190D01*
X173505714Y-57222380D02*
X172934285Y-57222380D01*
X173220000Y-57222380D02*
X173220000Y-56222380D01*
X173124761Y-56365238D01*
X173029523Y-56460476D01*
X172934285Y-56508095D01*
%TO.C,U2*%
G36*
X170015742Y-98359948D02*
G01*
X169935683Y-98497019D01*
X169763360Y-98735191D01*
X169746857Y-98756732D01*
X169083015Y-99504590D01*
X168323285Y-100151975D01*
X167480564Y-100691380D01*
X166567752Y-101115300D01*
X165597746Y-101416227D01*
X164966572Y-101538757D01*
X164260244Y-101616983D01*
X163604482Y-101623667D01*
X162925881Y-101558742D01*
X162778583Y-101536786D01*
X161846829Y-101322168D01*
X160931901Y-100979590D01*
X160062983Y-100523352D01*
X159269259Y-99967756D01*
X158873115Y-99622916D01*
X158641671Y-99392638D01*
X158408744Y-99140602D01*
X158193232Y-98889974D01*
X158014027Y-98663918D01*
X157890026Y-98485600D01*
X157840121Y-98378187D01*
X157844036Y-98361232D01*
X157907545Y-98388597D01*
X158027970Y-98503580D01*
X158144537Y-98639058D01*
X158858287Y-99422634D01*
X159643463Y-100082795D01*
X160504048Y-100622056D01*
X161444030Y-101042932D01*
X162420837Y-101336986D01*
X162752188Y-101392881D01*
X163179439Y-101431816D01*
X163662285Y-101453405D01*
X164160419Y-101457261D01*
X164633539Y-101442999D01*
X165041339Y-101410233D01*
X165318583Y-101364748D01*
X166341112Y-101062785D01*
X167265647Y-100660992D01*
X168102411Y-100153165D01*
X168861632Y-99533098D01*
X169553165Y-98795031D01*
X169772251Y-98541520D01*
X169927036Y-98383581D01*
X170010530Y-98322596D01*
X170015742Y-98359948D01*
G37*
G36*
X170809991Y-91996894D02*
G01*
X171279974Y-92013986D01*
X171633783Y-92040995D01*
X171898324Y-92085356D01*
X172100501Y-92154504D01*
X172267218Y-92255877D01*
X172425381Y-92396909D01*
X172486848Y-92460345D01*
X172711325Y-92796144D01*
X172823322Y-93188147D01*
X172817496Y-93597696D01*
X172695774Y-93972118D01*
X172509753Y-94261785D01*
X172275529Y-94473110D01*
X171969223Y-94618125D01*
X171566955Y-94708862D01*
X171149674Y-94751142D01*
X170470132Y-94795780D01*
X170470132Y-96849127D01*
X169754639Y-96849127D01*
X169754639Y-94130253D01*
X170470132Y-94130253D01*
X170953090Y-94130142D01*
X171373993Y-94098741D01*
X171682574Y-94006862D01*
X171686470Y-94004931D01*
X171915853Y-93821791D01*
X172056043Y-93569281D01*
X172090586Y-93290385D01*
X172037003Y-93089197D01*
X171847521Y-92854544D01*
X171541681Y-92702195D01*
X171120487Y-92632578D01*
X170953090Y-92627829D01*
X170470132Y-92627718D01*
X170470132Y-94130253D01*
X169754639Y-94130253D01*
X169754639Y-91968178D01*
X170809991Y-91996894D01*
G37*
G36*
X158324358Y-92065866D02*
G01*
X158477033Y-92093222D01*
X158521400Y-92123674D01*
X158494933Y-92213709D01*
X158423173Y-92405499D01*
X158317586Y-92669440D01*
X158209717Y-92928604D01*
X158053150Y-93298916D01*
X157866048Y-93741914D01*
X157673405Y-94198399D01*
X157521126Y-94559549D01*
X157345199Y-94976593D01*
X157154309Y-95428437D01*
X156972924Y-95857199D01*
X156840614Y-96169408D01*
X156537010Y-96884901D01*
X156097914Y-96906211D01*
X155658818Y-96927520D01*
X155796309Y-96584239D01*
X155895085Y-96342284D01*
X156044059Y-95983820D01*
X156236928Y-95523809D01*
X156467391Y-94977216D01*
X156729148Y-94359005D01*
X157015898Y-93684138D01*
X157161102Y-93343211D01*
X157315642Y-92978438D01*
X157451663Y-92653244D01*
X157558481Y-92393493D01*
X157625413Y-92225047D01*
X157641400Y-92180535D01*
X157692270Y-92107510D01*
X157810457Y-92068962D01*
X158029502Y-92055744D01*
X158100449Y-92055324D01*
X158324358Y-92065866D01*
G37*
G36*
X169379584Y-98377255D02*
G01*
X169295018Y-98501135D01*
X169107814Y-98721155D01*
X168894279Y-98951902D01*
X168170312Y-99611466D01*
X167355673Y-100166258D01*
X166466945Y-100606236D01*
X165743066Y-100860314D01*
X165480873Y-100927362D01*
X165204658Y-100975268D01*
X164879827Y-101007795D01*
X164471789Y-101028705D01*
X164102245Y-101038781D01*
X163684572Y-101042741D01*
X163286523Y-101037937D01*
X162944331Y-101025400D01*
X162694233Y-101006166D01*
X162627406Y-100996706D01*
X161995646Y-100836986D01*
X161316671Y-100581608D01*
X160630998Y-100247960D01*
X160007156Y-99872229D01*
X159799052Y-99718151D01*
X159555073Y-99514240D01*
X159295605Y-99280610D01*
X159041037Y-99037374D01*
X158811756Y-98804647D01*
X158628148Y-98602543D01*
X158510601Y-98451177D01*
X158479502Y-98370662D01*
X158481856Y-98367356D01*
X158546258Y-98397076D01*
X158685516Y-98512230D01*
X158877327Y-98693199D01*
X159042572Y-98860642D01*
X159785348Y-99535308D01*
X160598045Y-100085210D01*
X161479810Y-100509852D01*
X162349287Y-100788958D01*
X162955428Y-100899634D01*
X163631594Y-100952984D01*
X164324908Y-100948881D01*
X164982494Y-100887201D01*
X165447266Y-100796326D01*
X166327729Y-100516687D01*
X167126506Y-100143578D01*
X167869995Y-99661757D01*
X168584595Y-99055985D01*
X168763463Y-98881751D01*
X169053450Y-98601764D01*
X169255199Y-98425639D01*
X169365111Y-98351446D01*
X169379584Y-98377255D01*
G37*
G36*
X164401837Y-86181895D02*
G01*
X164921213Y-86212337D01*
X165357090Y-86265389D01*
X165461682Y-86285047D01*
X166549901Y-86580359D01*
X167563152Y-86997280D01*
X168504436Y-87537427D01*
X169376756Y-88202416D01*
X169861963Y-88655648D01*
X170095887Y-88905113D01*
X170335162Y-89185395D01*
X170563983Y-89474635D01*
X170766541Y-89750976D01*
X170927031Y-89992557D01*
X171029646Y-90177520D01*
X171058579Y-90284005D01*
X171049593Y-90297999D01*
X170976519Y-90268147D01*
X170869347Y-90145051D01*
X170820213Y-90070277D01*
X170645703Y-89813042D01*
X170402451Y-89494028D01*
X170122942Y-89152600D01*
X169839661Y-88828123D01*
X169585094Y-88559961D01*
X169528986Y-88505614D01*
X168722232Y-87836583D01*
X167841690Y-87279870D01*
X166902630Y-86840320D01*
X165920326Y-86522779D01*
X164910047Y-86332090D01*
X163887065Y-86273100D01*
X162866653Y-86350653D01*
X162778583Y-86364003D01*
X161812668Y-86560296D01*
X160939685Y-86835503D01*
X160124947Y-87203806D01*
X159333766Y-87679390D01*
X159017630Y-87901734D01*
X158691591Y-88166375D01*
X158327328Y-88504758D01*
X157955934Y-88883914D01*
X157608507Y-89270874D01*
X157316140Y-89632671D01*
X157129146Y-89903976D01*
X156967422Y-90149252D01*
X156839738Y-90301699D01*
X156757753Y-90349783D01*
X156732668Y-90296172D01*
X156770701Y-90222610D01*
X156872685Y-90060281D01*
X157020442Y-89837604D01*
X157108301Y-89708892D01*
X157775355Y-88863972D01*
X158538684Y-88123151D01*
X159392613Y-87490109D01*
X160331471Y-86968526D01*
X161349584Y-86562082D01*
X162385062Y-86285954D01*
X162790575Y-86226091D01*
X163291733Y-86188785D01*
X163843748Y-86174048D01*
X164401837Y-86181895D01*
G37*
G36*
X165350202Y-85238211D02*
G01*
X166510622Y-85486576D01*
X166606470Y-85513394D01*
X167108493Y-85685514D01*
X167676715Y-85928357D01*
X168268177Y-86220118D01*
X168839919Y-86538994D01*
X169348979Y-86863179D01*
X169547873Y-87006277D01*
X170045844Y-87416431D01*
X170549685Y-87893452D01*
X171022288Y-88398778D01*
X171426546Y-88893850D01*
X171600932Y-89139690D01*
X171922113Y-89622648D01*
X173626142Y-89622648D01*
X173604334Y-89962507D01*
X173582527Y-90302366D01*
X172545062Y-90320208D01*
X172170587Y-90323028D01*
X171845523Y-90318668D01*
X171597491Y-90308016D01*
X171454113Y-90291960D01*
X171432539Y-90284433D01*
X171361807Y-90203268D01*
X171236771Y-90032079D01*
X171079620Y-89801782D01*
X171008941Y-89694197D01*
X170699386Y-89273672D01*
X170299021Y-88813122D01*
X169840682Y-88344555D01*
X169357204Y-87899981D01*
X168881424Y-87511411D01*
X168488110Y-87236768D01*
X167531411Y-86718551D01*
X166521684Y-86325931D01*
X165474682Y-86061462D01*
X164406161Y-85927696D01*
X163331876Y-85927189D01*
X162267584Y-86062492D01*
X161835226Y-86158453D01*
X161075895Y-86396873D01*
X160300328Y-86728089D01*
X159542041Y-87132822D01*
X158834551Y-87591792D01*
X158211373Y-88085720D01*
X157817672Y-88469470D01*
X157522340Y-88805117D01*
X157213580Y-89181914D01*
X156923452Y-89558848D01*
X156684015Y-89894910D01*
X156590812Y-90038874D01*
X156362647Y-90409690D01*
X153584499Y-90409690D01*
X153584499Y-89694197D01*
X155863087Y-89694197D01*
X156203487Y-89175465D01*
X156517785Y-88751536D01*
X156923876Y-88286214D01*
X157390073Y-87810426D01*
X157884691Y-87355101D01*
X158376044Y-86951167D01*
X158771822Y-86668479D01*
X159787562Y-86087577D01*
X160844877Y-85642311D01*
X161936784Y-85333712D01*
X163056297Y-85162809D01*
X164196432Y-85130632D01*
X165350202Y-85238211D01*
G37*
G36*
X164889027Y-87650947D02*
G01*
X165795254Y-87836702D01*
X166566924Y-88108119D01*
X167273161Y-88454642D01*
X167904300Y-88862292D01*
X168511690Y-89365286D01*
X168655103Y-89499658D01*
X168906840Y-89748128D01*
X169115437Y-89968888D01*
X169261149Y-90139936D01*
X169324229Y-90239270D01*
X169325344Y-90246465D01*
X169279075Y-90240663D01*
X169152954Y-90147201D01*
X168966005Y-89981862D01*
X168737253Y-89760427D01*
X168726941Y-89750060D01*
X167972631Y-89085652D01*
X167163183Y-88549524D01*
X166308892Y-88142696D01*
X165420058Y-87866190D01*
X164506979Y-87721023D01*
X163579951Y-87708218D01*
X162649274Y-87828794D01*
X161725245Y-88083771D01*
X160818162Y-88474169D01*
X160095780Y-88895040D01*
X159878857Y-89055983D01*
X159604063Y-89286561D01*
X159311490Y-89552103D01*
X159112036Y-89745779D01*
X158840328Y-90016366D01*
X158653194Y-90195727D01*
X158536035Y-90295794D01*
X158474251Y-90328500D01*
X158453242Y-90305778D01*
X158452948Y-90284479D01*
X158511450Y-90168181D01*
X158664165Y-89985524D01*
X158890219Y-89755196D01*
X159168740Y-89495881D01*
X159478857Y-89226268D01*
X159799695Y-88965042D01*
X160110383Y-88730890D01*
X160390048Y-88542498D01*
X160417456Y-88525713D01*
X161229647Y-88115326D01*
X162105154Y-87821144D01*
X163021723Y-87644680D01*
X163957099Y-87587444D01*
X164889027Y-87650947D01*
G37*
G36*
X160206042Y-94125847D02*
G01*
X160399023Y-93665539D01*
X160581496Y-93227519D01*
X160733042Y-92860678D01*
X160762088Y-92789773D01*
X161061400Y-92057461D01*
X161330821Y-92056392D01*
X161461159Y-92060831D01*
X161555771Y-92091946D01*
X161638467Y-92174576D01*
X161733054Y-92333558D01*
X161863341Y-92593733D01*
X161881525Y-92630929D01*
X162013670Y-92906821D01*
X162124146Y-93147513D01*
X162195268Y-93314084D01*
X162208423Y-93350251D01*
X162255657Y-93468168D01*
X162351175Y-93684841D01*
X162481353Y-93970011D01*
X162632571Y-94293418D01*
X162641521Y-94312334D01*
X162787927Y-94623762D01*
X162908995Y-94885522D01*
X162993088Y-95072139D01*
X163028568Y-95158139D01*
X163029006Y-95160483D01*
X163057433Y-95233551D01*
X163134306Y-95407865D01*
X163247009Y-95655256D01*
X163349518Y-95876213D01*
X163488124Y-96180551D01*
X163606064Y-96453717D01*
X163687906Y-96659187D01*
X163715021Y-96741418D01*
X163732818Y-96851549D01*
X163690760Y-96903808D01*
X163555776Y-96919676D01*
X163439044Y-96920676D01*
X163229376Y-96902048D01*
X163079986Y-96855169D01*
X163050042Y-96831239D01*
X162992606Y-96729523D01*
X162894770Y-96530570D01*
X162772993Y-96268461D01*
X162703633Y-96113923D01*
X162425259Y-95486044D01*
X161389949Y-95505754D01*
X160354639Y-95525465D01*
X160073921Y-96223070D01*
X159793204Y-96920676D01*
X159443499Y-96920676D01*
X159242056Y-96909177D01*
X159115666Y-96879842D01*
X159093794Y-96858119D01*
X159120842Y-96760368D01*
X159202470Y-96540452D01*
X159339404Y-96196574D01*
X159532370Y-95726937D01*
X159782095Y-95129744D01*
X159902070Y-94845746D01*
X160674226Y-94845746D01*
X161054588Y-94845746D01*
X161352247Y-94836602D01*
X161655274Y-94813570D01*
X161757560Y-94801528D01*
X162080172Y-94757309D01*
X161758181Y-94032373D01*
X161623656Y-93734478D01*
X161506871Y-93485034D01*
X161421776Y-93313277D01*
X161385224Y-93250683D01*
X161338433Y-93287166D01*
X161253173Y-93432753D01*
X161141026Y-93662488D01*
X161013573Y-93951413D01*
X160882395Y-94274572D01*
X160769523Y-94577437D01*
X160674226Y-94845746D01*
X159902070Y-94845746D01*
X160022973Y-94559549D01*
X160206042Y-94125847D01*
G37*
G36*
X156897012Y-92065950D02*
G01*
X157047870Y-92093494D01*
X157090414Y-92123408D01*
X157063470Y-92216433D01*
X156991680Y-92405110D01*
X156888607Y-92654455D01*
X156847703Y-92749464D01*
X156722685Y-93039317D01*
X156563282Y-93412430D01*
X156390266Y-93820021D01*
X156229245Y-94201803D01*
X155950464Y-94864199D01*
X155704825Y-95445477D01*
X155496875Y-95934959D01*
X155331163Y-96321965D01*
X155212239Y-96595816D01*
X155154922Y-96723915D01*
X155091053Y-96835349D01*
X155003372Y-96894285D01*
X154849426Y-96917202D01*
X154648024Y-96920676D01*
X154231984Y-96920676D01*
X154305793Y-96723915D01*
X154350563Y-96612347D01*
X154443797Y-96385889D01*
X154578418Y-96061533D01*
X154747345Y-95656268D01*
X154943502Y-95187086D01*
X155159808Y-94670977D01*
X155319270Y-94291239D01*
X156258939Y-92055324D01*
X156674677Y-92055324D01*
X156897012Y-92065950D01*
G37*
G36*
X165296191Y-86699499D02*
G01*
X166300710Y-86937978D01*
X167253741Y-87305992D01*
X168148068Y-87800924D01*
X168976469Y-88420154D01*
X169511141Y-88923983D01*
X169777612Y-89208907D01*
X170032193Y-89498379D01*
X170258586Y-89771810D01*
X170440494Y-90008611D01*
X170561617Y-90188192D01*
X170605659Y-90289964D01*
X170601834Y-90301838D01*
X170532157Y-90299936D01*
X170415886Y-90190313D01*
X170244738Y-89964515D01*
X170181599Y-89873070D01*
X169934393Y-89555602D01*
X169600988Y-89191628D01*
X169214985Y-88812907D01*
X168809984Y-88451197D01*
X168419588Y-88138257D01*
X168142162Y-87945493D01*
X167342540Y-87504001D01*
X166473327Y-87136668D01*
X165712104Y-86899581D01*
X165229006Y-86807205D01*
X164657506Y-86748337D01*
X164039390Y-86723044D01*
X163416444Y-86731395D01*
X162830454Y-86773459D01*
X162323207Y-86849305D01*
X162134639Y-86893693D01*
X161179590Y-87199900D01*
X160331008Y-87575634D01*
X159563173Y-88035624D01*
X158850361Y-88594597D01*
X158378301Y-89044527D01*
X158121333Y-89318805D01*
X157873132Y-89603519D01*
X157670498Y-89855608D01*
X157591259Y-89965557D01*
X157421662Y-90199257D01*
X157302278Y-90324183D01*
X157240525Y-90333455D01*
X157233513Y-90297370D01*
X157280740Y-90175852D01*
X157410088Y-89975577D01*
X157603059Y-89719533D01*
X157841152Y-89430711D01*
X158105869Y-89132101D01*
X158378711Y-88846693D01*
X158484122Y-88743162D01*
X159287998Y-88066942D01*
X160163540Y-87513199D01*
X161102633Y-87085611D01*
X162097164Y-86787860D01*
X163139019Y-86623626D01*
X163161570Y-86621615D01*
X164247405Y-86593172D01*
X165296191Y-86699499D01*
G37*
G36*
X159976652Y-92065581D02*
G01*
X160125989Y-92091989D01*
X160167034Y-92120099D01*
X160140367Y-92205238D01*
X160066800Y-92397649D01*
X159955979Y-92673151D01*
X159817550Y-93007565D01*
X159731708Y-93211226D01*
X159427821Y-93928800D01*
X159126351Y-94642748D01*
X158841146Y-95320175D01*
X158586057Y-95928189D01*
X158395678Y-96384056D01*
X158187153Y-96884901D01*
X157737052Y-96906438D01*
X157485969Y-96911813D01*
X157354554Y-96894901D01*
X157320568Y-96851835D01*
X157325348Y-96834889D01*
X157374380Y-96717752D01*
X157470065Y-96490614D01*
X157603206Y-96175222D01*
X157764607Y-95793324D01*
X157945071Y-95366668D01*
X158135399Y-94917003D01*
X158326397Y-94466075D01*
X158508865Y-94035633D01*
X158590138Y-93844056D01*
X158756055Y-93452692D01*
X158915631Y-93075619D01*
X159054365Y-92747142D01*
X159157759Y-92501568D01*
X159187303Y-92431057D01*
X159344217Y-92055523D01*
X159755625Y-92055423D01*
X159976652Y-92065581D01*
G37*
G36*
X170597993Y-98312574D02*
G01*
X170587489Y-98397219D01*
X170493755Y-98564888D01*
X170332409Y-98795132D01*
X170119068Y-99067505D01*
X169869349Y-99361557D01*
X169598871Y-99656841D01*
X169470735Y-99788506D01*
X168678117Y-100491525D01*
X167823381Y-101067023D01*
X166901976Y-101517255D01*
X165909353Y-101844475D01*
X164931660Y-102038482D01*
X164429401Y-102100764D01*
X164006290Y-102127901D01*
X163602769Y-102119918D01*
X163159276Y-102076841D01*
X162884794Y-102039374D01*
X161825105Y-101819652D01*
X160839453Y-101478489D01*
X159921565Y-101012881D01*
X159065166Y-100419826D01*
X158525512Y-99952371D01*
X158296290Y-99724540D01*
X158049142Y-99458911D01*
X157803756Y-99179195D01*
X157579825Y-98909103D01*
X157397038Y-98672345D01*
X157275086Y-98492632D01*
X157233513Y-98396572D01*
X157266973Y-98345551D01*
X157362728Y-98413441D01*
X157513839Y-98593919D01*
X157633028Y-98760670D01*
X157812118Y-98996440D01*
X158055119Y-99282508D01*
X158321176Y-99571696D01*
X158440743Y-99693461D01*
X159247293Y-100400803D01*
X160108972Y-100976117D01*
X161025147Y-101419143D01*
X161995188Y-101729620D01*
X163018461Y-101907287D01*
X163923372Y-101953698D01*
X164986154Y-101883684D01*
X166007223Y-101679087D01*
X166977945Y-101344328D01*
X167889683Y-100883824D01*
X168733804Y-100301995D01*
X169501672Y-99603261D01*
X170184654Y-98792038D01*
X170234222Y-98724002D01*
X170391452Y-98516891D01*
X170517784Y-98370835D01*
X170590822Y-98311166D01*
X170597993Y-98312574D01*
G37*
G36*
X173618301Y-98995606D02*
G01*
X171980528Y-98995606D01*
X171551580Y-99621662D01*
X170869233Y-100491590D01*
X170077785Y-101270036D01*
X169180217Y-101954486D01*
X168179512Y-102542425D01*
X167960414Y-102651522D01*
X167590000Y-102824284D01*
X167253301Y-102964250D01*
X166906288Y-103087072D01*
X166504934Y-103208401D01*
X166034076Y-103336309D01*
X165730708Y-103409573D01*
X165441535Y-103462292D01*
X165129148Y-103498579D01*
X164756136Y-103522548D01*
X164285089Y-103538313D01*
X164173794Y-103540888D01*
X163742314Y-103545873D01*
X163328928Y-103542609D01*
X162968891Y-103531945D01*
X162697459Y-103514732D01*
X162599710Y-103502943D01*
X161469515Y-103252610D01*
X160384759Y-102878761D01*
X159361684Y-102388943D01*
X158416531Y-101790702D01*
X157727450Y-101239136D01*
X157421841Y-100953305D01*
X157106109Y-100633366D01*
X156809547Y-100311173D01*
X156561449Y-100018578D01*
X156391107Y-99787436D01*
X156388052Y-99782648D01*
X156272427Y-99612849D01*
X156120014Y-99403653D01*
X156068278Y-99335465D01*
X155862051Y-99067155D01*
X153584499Y-99067155D01*
X153584499Y-98351662D01*
X156412897Y-98351662D01*
X156805317Y-98941745D01*
X157459123Y-99801372D01*
X158211029Y-100568659D01*
X159047388Y-101233806D01*
X159954551Y-101787009D01*
X160918870Y-102218467D01*
X161714595Y-102467426D01*
X162808369Y-102679087D01*
X163894236Y-102751384D01*
X164985463Y-102684314D01*
X166095319Y-102477873D01*
X166141400Y-102466438D01*
X166718439Y-102287582D01*
X167345014Y-102035267D01*
X167970902Y-101733347D01*
X168545878Y-101405677D01*
X168941557Y-101136448D01*
X169472313Y-100695081D01*
X170013717Y-100169890D01*
X170522612Y-99606291D01*
X170955843Y-99049698D01*
X171039186Y-98929025D01*
X171475513Y-98280113D01*
X173618301Y-98280113D01*
X173618301Y-98995606D01*
G37*
G36*
X164476430Y-87098424D02*
G01*
X165026122Y-87141987D01*
X165461682Y-87215287D01*
X166487170Y-87524584D01*
X167431792Y-87951915D01*
X168295452Y-88497219D01*
X169078050Y-89160436D01*
X169702129Y-89844665D01*
X169845927Y-90038312D01*
X169941948Y-90199063D01*
X169966907Y-90273960D01*
X169930103Y-90300548D01*
X169834152Y-90213350D01*
X169818920Y-90195042D01*
X169124994Y-89414098D01*
X168417744Y-88766127D01*
X167681257Y-88241026D01*
X166899621Y-87828694D01*
X166056923Y-87519027D01*
X165315197Y-87335827D01*
X164333015Y-87209648D01*
X163352871Y-87219910D01*
X162388963Y-87361357D01*
X161455486Y-87628730D01*
X160566636Y-88016773D01*
X159736611Y-88520228D01*
X158979607Y-89133837D01*
X158309820Y-89852343D01*
X158222654Y-89962507D01*
X158027452Y-90196280D01*
X157889732Y-90321840D01*
X157816359Y-90333763D01*
X157805907Y-90291848D01*
X157853107Y-90196598D01*
X157981177Y-90023922D01*
X158169821Y-89797601D01*
X158398743Y-89541416D01*
X158647647Y-89279146D01*
X158800668Y-89126287D01*
X159529749Y-88509908D01*
X160352649Y-87984206D01*
X161241596Y-87564403D01*
X162168819Y-87265721D01*
X162216297Y-87254092D01*
X162700675Y-87166761D01*
X163268777Y-87111348D01*
X163875672Y-87088390D01*
X164476430Y-87098424D01*
G37*
G36*
X171089861Y-98357987D02*
G01*
X171022527Y-98498750D01*
X170871996Y-98748982D01*
X170819784Y-98830176D01*
X170196476Y-99659332D01*
X169463021Y-100405199D01*
X168632182Y-101057774D01*
X167716721Y-101607052D01*
X166729401Y-102043028D01*
X166713794Y-102048770D01*
X166275333Y-102197771D01*
X165866483Y-102306981D01*
X165448631Y-102382645D01*
X164983167Y-102431013D01*
X164431480Y-102458330D01*
X164138020Y-102465550D01*
X163718932Y-102471436D01*
X163335665Y-102472960D01*
X163017227Y-102470301D01*
X162792626Y-102463638D01*
X162707034Y-102456727D01*
X161716105Y-102240097D01*
X160740722Y-101893614D01*
X159806436Y-101430170D01*
X158938796Y-100862660D01*
X158163352Y-100203978D01*
X158079818Y-100121540D01*
X157856256Y-99884802D01*
X157612560Y-99606314D01*
X157367138Y-99309689D01*
X157138399Y-99018540D01*
X156944754Y-98756479D01*
X156804610Y-98547118D01*
X156736379Y-98414071D01*
X156732668Y-98393631D01*
X156763306Y-98345423D01*
X156856526Y-98416325D01*
X157014281Y-98608423D01*
X157238527Y-98923805D01*
X157263099Y-98959870D01*
X157750137Y-99581436D01*
X158346057Y-100186846D01*
X159017134Y-100748082D01*
X159729644Y-101237128D01*
X160449863Y-101625964D01*
X160499432Y-101648587D01*
X161534009Y-102041050D01*
X162577843Y-102290871D01*
X163628328Y-102398015D01*
X164682857Y-102362444D01*
X165738826Y-102184124D01*
X166793627Y-101863018D01*
X167107315Y-101739720D01*
X167963104Y-101314831D01*
X168787757Y-100767559D01*
X169555935Y-100118504D01*
X170242298Y-99388263D01*
X170642058Y-98866290D01*
X170850098Y-98580844D01*
X170997906Y-98400200D01*
X171079741Y-98325526D01*
X171089861Y-98357987D01*
G37*
G36*
X168777179Y-93432648D02*
G01*
X168792508Y-93959522D01*
X168805761Y-94517692D01*
X168816056Y-95061529D01*
X168822508Y-95545404D01*
X168824311Y-95865324D01*
X168824499Y-96849127D01*
X168037456Y-96849127D01*
X168037456Y-93190635D01*
X167680136Y-93642557D01*
X167330025Y-94083008D01*
X167056712Y-94420761D01*
X166850336Y-94666990D01*
X166701034Y-94832871D01*
X166598946Y-94929581D01*
X166534210Y-94968293D01*
X166510002Y-94968614D01*
X166438331Y-94905862D01*
X166295516Y-94751215D01*
X166099318Y-94524906D01*
X165867498Y-94247168D01*
X165748087Y-94100662D01*
X165068160Y-93260040D01*
X165049045Y-95054583D01*
X165029929Y-96849127D01*
X164339606Y-96849127D01*
X164292663Y-95400253D01*
X164277381Y-94877101D01*
X164264158Y-94326173D01*
X164253869Y-93791999D01*
X164247389Y-93319104D01*
X164245531Y-93003352D01*
X164245344Y-92055324D01*
X164620977Y-92059005D01*
X164996611Y-92062686D01*
X165736379Y-92989146D01*
X165986563Y-93297930D01*
X166208312Y-93563087D01*
X166385515Y-93766025D01*
X166502061Y-93888150D01*
X166539202Y-93915606D01*
X166602149Y-93862159D01*
X166737228Y-93714012D01*
X166928765Y-93489460D01*
X167161084Y-93206793D01*
X167366894Y-92949690D01*
X167644578Y-92599963D01*
X167850679Y-92346845D01*
X168002398Y-92174717D01*
X168116937Y-92067965D01*
X168211500Y-92010971D01*
X168303288Y-91988118D01*
X168409503Y-91983791D01*
X168430884Y-91983775D01*
X168730236Y-91983775D01*
X168777179Y-93432648D01*
G37*
D11*
%TO.C,U3*%
X175230000Y-105590000D02*
G75*
G03*
X175230000Y-105590000I-1750000J0D01*
G01*
X143230000Y-105590000D02*
G75*
G03*
X143230000Y-105590000I-1750000J0D01*
G01*
X143230000Y-128090000D02*
G75*
G03*
X143230000Y-128090000I-1750000J0D01*
G01*
X175230000Y-128090000D02*
G75*
G03*
X175230000Y-128090000I-1750000J0D01*
G01*
D12*
%TO.C,C2*%
X177065000Y-68841252D02*
X177065000Y-68318748D01*
X178535000Y-68841252D02*
X178535000Y-68318748D01*
%TO.C,C6*%
X112021252Y-62765000D02*
X111498748Y-62765000D01*
X112021252Y-64235000D02*
X111498748Y-64235000D01*
%TO.C,R5*%
X121692936Y-58955000D02*
X122147064Y-58955000D01*
X121692936Y-60425000D02*
X122147064Y-60425000D01*
%TO.C,JT1*%
X163770000Y-53400000D02*
X166430000Y-53400000D01*
X163770000Y-52070000D02*
X163770000Y-50740000D01*
X163770000Y-53340000D02*
X166430000Y-53340000D01*
X163770000Y-50740000D02*
X165100000Y-50740000D01*
X166430000Y-53340000D02*
X166430000Y-53400000D01*
X163770000Y-53340000D02*
X163770000Y-53400000D01*
%TO.C,C5*%
X173455000Y-82811252D02*
X173455000Y-82288748D01*
X171985000Y-82811252D02*
X171985000Y-82288748D01*
%TO.C,SW4*%
X176740000Y-77670000D02*
X189040000Y-77670000D01*
X176740000Y-89970000D02*
X176740000Y-87250000D01*
X189040000Y-87250000D02*
X189040000Y-89970000D01*
X176740000Y-85390000D02*
X176740000Y-82250000D01*
X189040000Y-89970000D02*
X176740000Y-89970000D01*
X189040000Y-82250000D02*
X189040000Y-85390000D01*
X176740000Y-80390000D02*
X176740000Y-77670000D01*
X189040000Y-77670000D02*
X189040000Y-80390000D01*
X187569050Y-83860000D02*
G75*
G03*
X187569050Y-83860000I-4579050J0D01*
G01*
%TO.C,C4*%
X158215000Y-52041248D02*
X158215000Y-52563752D01*
X156745000Y-52041248D02*
X156745000Y-52563752D01*
%TO.C,C3*%
X186155000Y-68841252D02*
X186155000Y-68318748D01*
X184685000Y-68841252D02*
X184685000Y-68318748D01*
D13*
%TO.C,U4*%
X115800000Y-87300000D02*
X115800000Y-84100000D01*
X112700000Y-81100000D02*
X109550000Y-81100000D01*
X128600000Y-72100000D02*
X130150000Y-72100000D01*
X115200000Y-68200000D02*
X115200000Y-61900000D01*
X115800000Y-84100000D02*
X114580000Y-84100000D01*
X112700000Y-81370000D02*
X112700000Y-81100000D01*
X130150000Y-80200000D02*
X128600000Y-80200000D01*
X115200000Y-61900000D02*
X126100000Y-61900000D01*
X126730000Y-84100000D02*
X125500000Y-84100000D01*
X125500000Y-84100000D02*
X125500000Y-87300000D01*
X109550000Y-71300000D02*
X112700000Y-71300000D01*
X128600000Y-80200000D02*
X128600000Y-81320000D01*
X114580000Y-68200000D02*
X115200000Y-68200000D01*
X126100000Y-68200000D02*
X126730000Y-68200000D01*
X109550000Y-81100000D02*
X109550000Y-71300000D01*
X126100000Y-61900000D02*
X126100000Y-68200000D01*
X130150000Y-72100000D02*
X130150000Y-80200000D01*
D14*
X114700000Y-62850000D02*
G75*
G03*
X114700000Y-62850000I-100000J0D01*
G01*
D12*
%TO.C,SW2*%
X161500000Y-76000000D02*
X161500000Y-73280000D01*
X161500000Y-71420000D02*
X161500000Y-68280000D01*
X173800000Y-63700000D02*
X173800000Y-66420000D01*
X161500000Y-66420000D02*
X161500000Y-63700000D01*
X173800000Y-73280000D02*
X173800000Y-76000000D01*
X173800000Y-76000000D02*
X161500000Y-76000000D01*
X173800000Y-68280000D02*
X173800000Y-71420000D01*
X161500000Y-63700000D02*
X173800000Y-63700000D01*
X172329050Y-69890000D02*
G75*
G03*
X172329050Y-69890000I-4579050J0D01*
G01*
%TO.C,SW3*%
X189440000Y-66420000D02*
X189440000Y-63700000D01*
X201740000Y-73280000D02*
X201740000Y-76000000D01*
X189440000Y-63700000D02*
X201740000Y-63700000D01*
X201740000Y-68280000D02*
X201740000Y-71420000D01*
X189440000Y-71420000D02*
X189440000Y-68280000D01*
X201740000Y-63700000D02*
X201740000Y-66420000D01*
X201740000Y-76000000D02*
X189440000Y-76000000D01*
X189440000Y-76000000D02*
X189440000Y-73280000D01*
X200269050Y-69890000D02*
G75*
G03*
X200269050Y-69890000I-4579050J0D01*
G01*
D13*
%TO.C,U5*%
X201270000Y-114172500D02*
X199720000Y-114172500D01*
X199720000Y-106072500D02*
X201270000Y-106072500D01*
X185700000Y-102172500D02*
X186320000Y-102172500D01*
X180670000Y-105272500D02*
X183820000Y-105272500D01*
X186320000Y-95872500D02*
X197220000Y-95872500D01*
X180670000Y-115072500D02*
X180670000Y-105272500D01*
X183820000Y-115072500D02*
X180670000Y-115072500D01*
X197220000Y-102172500D02*
X197850000Y-102172500D01*
X183820000Y-115342500D02*
X183820000Y-115072500D01*
X197850000Y-118072500D02*
X196620000Y-118072500D01*
X199720000Y-114172500D02*
X199720000Y-115292500D01*
X201270000Y-106072500D02*
X201270000Y-114172500D01*
X186920000Y-118072500D02*
X185700000Y-118072500D01*
X186320000Y-102172500D02*
X186320000Y-95872500D01*
X186920000Y-121272500D02*
X186920000Y-118072500D01*
X197220000Y-95872500D02*
X197220000Y-102172500D01*
X196620000Y-118072500D02*
X196620000Y-121272500D01*
D14*
X185820000Y-96822500D02*
G75*
G03*
X185820000Y-96822500I-100000J0D01*
G01*
D12*
%TO.C,SW1*%
X189040000Y-59310000D02*
X189040000Y-62030000D01*
X176740000Y-57450000D02*
X176740000Y-54310000D01*
X176740000Y-62030000D02*
X176740000Y-59310000D01*
X189040000Y-54310000D02*
X189040000Y-57450000D01*
X176740000Y-52450000D02*
X176740000Y-49730000D01*
X176740000Y-49730000D02*
X189040000Y-49730000D01*
X189040000Y-62030000D02*
X176740000Y-62030000D01*
X189040000Y-49730000D02*
X189040000Y-52450000D01*
X187569050Y-55920000D02*
G75*
G03*
X187569050Y-55920000I-4579050J0D01*
G01*
%TO.C,R2*%
X178027064Y-71655000D02*
X177572936Y-71655000D01*
X178027064Y-73125000D02*
X177572936Y-73125000D01*
%TO.C,U1*%
X108585000Y-119380000D02*
X137795000Y-119380000D01*
X137795000Y-119380000D02*
X137795000Y-93980000D01*
X137795000Y-93980000D02*
X108585000Y-93980000D01*
X108585000Y-93980000D02*
X108585000Y-119380000D01*
%TO.C,C7*%
X181871252Y-98525000D02*
X181348748Y-98525000D01*
X181871252Y-97055000D02*
X181348748Y-97055000D01*
D10*
%TO.C,U2*%
X152400000Y-73660000D02*
X152400000Y-76200000D01*
X143510000Y-55880000D02*
X143510000Y-50800000D01*
X148590000Y-78740000D02*
X148590000Y-83312000D01*
X152400000Y-73025000D02*
X152400000Y-62865000D01*
X149225000Y-73660000D02*
X152400000Y-73660000D01*
X146050000Y-78740000D02*
X148590000Y-78740000D01*
X149225000Y-76200000D02*
X149225000Y-73660000D01*
X138430000Y-50800000D02*
X156210000Y-50800000D01*
X143510000Y-55880000D02*
X151130000Y-55880000D01*
X151130000Y-55880000D02*
X151130000Y-50800000D01*
X143510000Y-50800000D02*
X143510000Y-49530000D01*
X142240000Y-73025000D02*
X152400000Y-73025000D01*
X152400000Y-62865000D02*
X142240000Y-62865000D01*
X143510000Y-49530000D02*
X151130000Y-49530000D01*
X146050000Y-83312000D02*
X146050000Y-78740000D01*
X152400000Y-76200000D02*
X149225000Y-76200000D01*
X142240000Y-73025000D02*
X142240000Y-62865000D01*
X148590000Y-83312000D02*
X146050000Y-83312000D01*
X138430000Y-86360000D02*
X138430000Y-50800000D01*
X156210000Y-50800000D02*
X156210000Y-86360000D01*
X151130000Y-49530000D02*
X151130000Y-50800000D01*
X156210000Y-86360000D02*
X138430000Y-86360000D01*
G36*
X147701000Y-66040000D02*
G01*
X147320000Y-66294000D01*
X147066000Y-66040000D01*
X147447000Y-65786000D01*
X147701000Y-66040000D01*
G37*
D15*
X147701000Y-66040000D02*
X147320000Y-66294000D01*
X147066000Y-66040000D01*
X147447000Y-65786000D01*
X147701000Y-66040000D01*
G36*
X148209000Y-65659000D02*
G01*
X147828000Y-65913000D01*
X147574000Y-65659000D01*
X147955000Y-65405000D01*
X148209000Y-65659000D01*
G37*
X148209000Y-65659000D02*
X147828000Y-65913000D01*
X147574000Y-65659000D01*
X147955000Y-65405000D01*
X148209000Y-65659000D01*
G36*
X147066000Y-67183000D02*
G01*
X146685000Y-67437000D01*
X146431000Y-67183000D01*
X146812000Y-66929000D01*
X147066000Y-67183000D01*
G37*
X147066000Y-67183000D02*
X146685000Y-67437000D01*
X146431000Y-67183000D01*
X146812000Y-66929000D01*
X147066000Y-67183000D01*
G36*
X147193000Y-66421000D02*
G01*
X146812000Y-66675000D01*
X146558000Y-66421000D01*
X146939000Y-66167000D01*
X147193000Y-66421000D01*
G37*
X147193000Y-66421000D02*
X146812000Y-66675000D01*
X146558000Y-66421000D01*
X146939000Y-66167000D01*
X147193000Y-66421000D01*
G36*
X148082000Y-66421000D02*
G01*
X147701000Y-66675000D01*
X147447000Y-66421000D01*
X147828000Y-66167000D01*
X148082000Y-66421000D01*
G37*
X148082000Y-66421000D02*
X147701000Y-66675000D01*
X147447000Y-66421000D01*
X147828000Y-66167000D01*
X148082000Y-66421000D01*
G36*
X147574000Y-66802000D02*
G01*
X147193000Y-67056000D01*
X146939000Y-66802000D01*
X147320000Y-66548000D01*
X147574000Y-66802000D01*
G37*
X147574000Y-66802000D02*
X147193000Y-67056000D01*
X146939000Y-66802000D01*
X147320000Y-66548000D01*
X147574000Y-66802000D01*
G36*
X147447000Y-64897000D02*
G01*
X147066000Y-65151000D01*
X146812000Y-64897000D01*
X147193000Y-64643000D01*
X147447000Y-64897000D01*
G37*
X147447000Y-64897000D02*
X147066000Y-65151000D01*
X146812000Y-64897000D01*
X147193000Y-64643000D01*
X147447000Y-64897000D01*
G36*
X147828000Y-65278000D02*
G01*
X147447000Y-65532000D01*
X147193000Y-65278000D01*
X147574000Y-65024000D01*
X147828000Y-65278000D01*
G37*
X147828000Y-65278000D02*
X147447000Y-65532000D01*
X147193000Y-65278000D01*
X147574000Y-65024000D01*
X147828000Y-65278000D01*
D12*
%TO.C,R4*%
X172492936Y-85625000D02*
X172947064Y-85625000D01*
X172492936Y-87095000D02*
X172947064Y-87095000D01*
%TO.C,C1*%
X171985000Y-54871252D02*
X171985000Y-54348748D01*
X173455000Y-54871252D02*
X173455000Y-54348748D01*
%TO.C,R6*%
X177302936Y-97055000D02*
X177757064Y-97055000D01*
X177302936Y-98525000D02*
X177757064Y-98525000D01*
%TO.C,R3*%
X185192936Y-71655000D02*
X185647064Y-71655000D01*
X185192936Y-73125000D02*
X185647064Y-73125000D01*
%TO.C,R1*%
X172492936Y-59155000D02*
X172947064Y-59155000D01*
X172492936Y-57685000D02*
X172947064Y-57685000D01*
%TD*%
M02*
