%TF.GenerationSoftware,KiCad,Pcbnew,(6.0.7)*%
%TF.CreationDate,2023-03-27T09:38:56-04:00*%
%TF.ProjectId,RC_PCB,52435f50-4342-42e6-9b69-6361645f7063,rev?*%
%TF.SameCoordinates,Original*%
%TF.FileFunction,Copper,L1,Top*%
%TF.FilePolarity,Positive*%
%FSLAX46Y46*%
G04 Gerber Fmt 4.6, Leading zero omitted, Abs format (unit mm)*
G04 Created by KiCad (PCBNEW (6.0.7)) date 2023-03-27 09:38:56*
%MOMM*%
%LPD*%
G01*
G04 APERTURE LIST*
G04 Aperture macros list*
%AMRoundRect*
0 Rectangle with rounded corners*
0 $1 Rounding radius*
0 $2 $3 $4 $5 $6 $7 $8 $9 X,Y pos of 4 corners*
0 Add a 4 corners polygon primitive as box body*
4,1,4,$2,$3,$4,$5,$6,$7,$8,$9,$2,$3,0*
0 Add four circle primitives for the rounded corners*
1,1,$1+$1,$2,$3*
1,1,$1+$1,$4,$5*
1,1,$1+$1,$6,$7*
1,1,$1+$1,$8,$9*
0 Add four rect primitives between the rounded corners*
20,1,$1+$1,$2,$3,$4,$5,0*
20,1,$1+$1,$4,$5,$6,$7,0*
20,1,$1+$1,$6,$7,$8,$9,0*
20,1,$1+$1,$8,$9,$2,$3,0*%
G04 Aperture macros list end*
%TA.AperFunction,ComponentPad*%
%ADD10C,1.778000*%
%TD*%
%TA.AperFunction,ComponentPad*%
%ADD11C,2.286000*%
%TD*%
%TA.AperFunction,ComponentPad*%
%ADD12R,1.700000X1.700000*%
%TD*%
%TA.AperFunction,ComponentPad*%
%ADD13C,3.200000*%
%TD*%
%TA.AperFunction,SMDPad,CuDef*%
%ADD14RoundRect,0.250000X0.475000X-0.337500X0.475000X0.337500X-0.475000X0.337500X-0.475000X-0.337500X0*%
%TD*%
%TA.AperFunction,SMDPad,CuDef*%
%ADD15RoundRect,0.250000X0.337500X0.475000X-0.337500X0.475000X-0.337500X-0.475000X0.337500X-0.475000X0*%
%TD*%
%TA.AperFunction,SMDPad,CuDef*%
%ADD16RoundRect,0.250000X-0.350000X-0.450000X0.350000X-0.450000X0.350000X0.450000X-0.350000X0.450000X0*%
%TD*%
%TA.AperFunction,ComponentPad*%
%ADD17O,3.048000X1.850000*%
%TD*%
%TA.AperFunction,SMDPad,CuDef*%
%ADD18RoundRect,0.250000X-0.475000X0.337500X-0.475000X-0.337500X0.475000X-0.337500X0.475000X0.337500X0*%
%TD*%
%TA.AperFunction,SMDPad,CuDef*%
%ADD19RoundRect,0.250000X0.350000X0.450000X-0.350000X0.450000X-0.350000X-0.450000X0.350000X-0.450000X0*%
%TD*%
%TA.AperFunction,ComponentPad*%
%ADD20C,1.524000*%
%TD*%
%TA.AperFunction,ComponentPad*%
%ADD21C,1.600000*%
%TD*%
%TA.AperFunction,ViaPad*%
%ADD22C,0.800000*%
%TD*%
%TA.AperFunction,Conductor*%
%ADD23C,0.250000*%
%TD*%
G04 APERTURE END LIST*
D10*
%TO.P,U5,B1A,SEL+*%
%TO.N,/JOY_RIGHT_BTN*%
X188595000Y-97472500D03*
%TO.P,U5,B1B*%
X194945000Y-97472500D03*
%TO.P,U5,B2A,SEL-*%
%TO.N,GND*%
X188595000Y-102552500D03*
%TO.P,U5,B2B*%
X194945000Y-102552500D03*
%TO.P,U5,H1,H+*%
%TO.N,+3V3*%
X189230000Y-120332500D03*
%TO.P,U5,H2,H*%
%TO.N,/JOY_RIGHT_H*%
X191770000Y-120332500D03*
%TO.P,U5,H3,H-*%
%TO.N,GND*%
X194310000Y-120332500D03*
D11*
%TO.P,U5,S1,SHIELD*%
X184150000Y-103505000D03*
%TO.P,U5,S2,SHIELD*%
X184150000Y-116840000D03*
%TO.P,U5,S3,SHIELD*%
X199390000Y-116840000D03*
%TO.P,U5,S4,SHIELD*%
X199390000Y-103505000D03*
D10*
%TO.P,U5,V1,V+*%
%TO.N,+3V3*%
X181610000Y-107632500D03*
%TO.P,U5,V2,V*%
%TO.N,/JOY_RIGHT_V*%
X181610000Y-110172500D03*
%TO.P,U5,V3,V-*%
%TO.N,GND*%
X181610000Y-112712500D03*
%TD*%
%TO.P,U4,B1A,SEL+*%
%TO.N,/JOY_LEFT_BTN*%
X117475000Y-63500000D03*
%TO.P,U4,B1B*%
X123825000Y-63500000D03*
%TO.P,U4,B2A,SEL-*%
%TO.N,GND*%
X117475000Y-68580000D03*
%TO.P,U4,B2B*%
X123825000Y-68580000D03*
%TO.P,U4,H1,H+*%
%TO.N,+3V3*%
X118110000Y-86360000D03*
%TO.P,U4,H2,H*%
%TO.N,/JOY_LEFT_H*%
X120650000Y-86360000D03*
%TO.P,U4,H3,H-*%
%TO.N,GND*%
X123190000Y-86360000D03*
D11*
%TO.P,U4,S1,SHIELD*%
X113030000Y-69532500D03*
%TO.P,U4,S2,SHIELD*%
X113030000Y-82867500D03*
%TO.P,U4,S3,SHIELD*%
X128270000Y-82867500D03*
%TO.P,U4,S4,SHIELD*%
X128270000Y-69532500D03*
D10*
%TO.P,U4,V1,V+*%
%TO.N,+3V3*%
X110490000Y-73660000D03*
%TO.P,U4,V2,V*%
%TO.N,/JOY_LEFT_V*%
X110490000Y-76200000D03*
%TO.P,U4,V3,V-*%
%TO.N,GND*%
X110490000Y-78740000D03*
%TD*%
D12*
%TO.P,JT1 VBAT,1,Pin_1*%
%TO.N,Net-(JT1-Pad1)*%
X132080000Y-52070000D03*
%TD*%
D10*
%TO.P,U3,1,SDA*%
%TO.N,/OLED_SDA*%
X148590000Y-100852500D03*
%TO.P,U3,2,SCL*%
%TO.N,/OLED_SCL*%
X151130000Y-100852500D03*
%TO.P,U3,3,DC*%
%TO.N,unconnected-(U3-Pad3)*%
X153670000Y-100852500D03*
%TO.P,U3,4,RST*%
%TO.N,unconnected-(U3-Pad4)*%
X156210000Y-100852500D03*
%TO.P,U3,5,CS*%
%TO.N,unconnected-(U3-Pad5)*%
X158750000Y-100852500D03*
%TO.P,U3,6,3.3V*%
%TO.N,unconnected-(U3-Pad6)*%
X161290000Y-100852500D03*
%TO.P,U3,7,VIN*%
%TO.N,+3V3*%
X163830000Y-100852500D03*
%TO.P,U3,8,GND*%
%TO.N,GND*%
X166370000Y-100852500D03*
D13*
%TO.P,U3,P$1*%
%TO.N,N/C*%
X169545000Y-127522500D03*
X169545000Y-100852500D03*
X145415000Y-100852500D03*
X145415000Y-127522500D03*
%TD*%
D14*
%TO.P,C2,1*%
%TO.N,/BTN_LEFT*%
X177800000Y-69617500D03*
%TO.P,C2,2*%
%TO.N,GND*%
X177800000Y-67542500D03*
%TD*%
D15*
%TO.P,C6,1*%
%TO.N,/JOY_LEFT_BTN*%
X112797500Y-63500000D03*
%TO.P,C6,2*%
%TO.N,GND*%
X110722500Y-63500000D03*
%TD*%
D16*
%TO.P,R5,1*%
%TO.N,+3V3*%
X120920000Y-59690000D03*
%TO.P,R5,2*%
%TO.N,/JOY_LEFT_BTN*%
X122920000Y-59690000D03*
%TD*%
D12*
%TO.P,JT2 VUSB,1,Pin_1*%
%TO.N,Net-(JT2-Pad1)*%
X165100000Y-52070000D03*
%TD*%
D14*
%TO.P,C5,1*%
%TO.N,/BTN_DOWN*%
X172720000Y-83587500D03*
%TO.P,C5,2*%
%TO.N,GND*%
X172720000Y-81512500D03*
%TD*%
D17*
%TO.P,SW4,1,1*%
%TO.N,GND*%
X176640000Y-81320000D03*
X189140000Y-81320000D03*
%TO.P,SW4,2,2*%
%TO.N,/BTN_DOWN*%
X189140000Y-86320000D03*
X176640000Y-86320000D03*
%TD*%
D18*
%TO.P,C4,1*%
%TO.N,+5V*%
X157480000Y-51265000D03*
%TO.P,C4,2*%
%TO.N,GND*%
X157480000Y-53340000D03*
%TD*%
D14*
%TO.P,C3,1*%
%TO.N,/BTN_RIGHT*%
X185420000Y-69617500D03*
%TO.P,C3,2*%
%TO.N,GND*%
X185420000Y-67542500D03*
%TD*%
D17*
%TO.P,SW2,1,1*%
%TO.N,GND*%
X161400000Y-67350000D03*
X173900000Y-67350000D03*
%TO.P,SW2,2,2*%
%TO.N,/BTN_LEFT*%
X161400000Y-72350000D03*
X173900000Y-72350000D03*
%TD*%
%TO.P,SW3,1,1*%
%TO.N,GND*%
X201840000Y-67350000D03*
X189340000Y-67350000D03*
%TO.P,SW3,2,2*%
%TO.N,/BTN_RIGHT*%
X201840000Y-72350000D03*
X189340000Y-72350000D03*
%TD*%
%TO.P,SW1,1,1*%
%TO.N,GND*%
X176640000Y-53380000D03*
X189140000Y-53380000D03*
%TO.P,SW1,2,2*%
%TO.N,/BTN_UP*%
X176640000Y-58380000D03*
X189140000Y-58380000D03*
%TD*%
D19*
%TO.P,R2,1*%
%TO.N,+3V3*%
X178800000Y-72390000D03*
%TO.P,R2,2*%
%TO.N,/BTN_LEFT*%
X176800000Y-72390000D03*
%TD*%
D20*
%TO.P,U1,1,VIN*%
%TO.N,+3V3*%
X135890000Y-116840000D03*
%TO.P,U1,2,GND*%
%TO.N,GND*%
X135890000Y-114300000D03*
%TO.P,U1,3,EN*%
%TO.N,unconnected-(U1-Pad3)*%
X135890000Y-111760000D03*
%TO.P,U1,4,G0*%
%TO.N,/LORA_INT*%
X135890000Y-109220000D03*
%TO.P,U1,5,SCK*%
%TO.N,/LORA_SCK*%
X135890000Y-106680000D03*
%TO.P,U1,6,MISO*%
%TO.N,/LORA_MISO*%
X135890000Y-104140000D03*
%TO.P,U1,7,MOSI*%
%TO.N,/LORA_MOSI*%
X135890000Y-101600000D03*
%TO.P,U1,8,CS*%
%TO.N,/LORA_CS*%
X135890000Y-99060000D03*
%TO.P,U1,9,RST*%
%TO.N,/LORA_RST*%
X135890000Y-96520000D03*
%TO.P,U1,10,G1*%
%TO.N,unconnected-(U1-Pad10)*%
X110490000Y-116840000D03*
%TO.P,U1,11,G2*%
%TO.N,unconnected-(U1-Pad11)*%
X110490000Y-114300000D03*
%TO.P,U1,12,G3*%
%TO.N,unconnected-(U1-Pad12)*%
X110490000Y-111760000D03*
%TO.P,U1,13,G4*%
%TO.N,unconnected-(U1-Pad13)*%
X110490000Y-109220000D03*
%TO.P,U1,14,G5*%
%TO.N,unconnected-(U1-Pad14)*%
X110490000Y-106680000D03*
%TD*%
D15*
%TO.P,C7,1*%
%TO.N,/JOY_RIGHT_BTN*%
X182647500Y-97790000D03*
%TO.P,C7,2*%
%TO.N,GND*%
X180572500Y-97790000D03*
%TD*%
D21*
%TO.P,U2,1,GND*%
%TO.N,GND*%
X139700000Y-52070000D03*
%TO.P,U2,2,0_RX1_CRX2_CS1*%
%TO.N,/JOY_LEFT_V*%
X139700000Y-54610000D03*
%TO.P,U2,3,1_TX1_CTX2_MISO1*%
%TO.N,/JOY_LEFT_H*%
X139700000Y-57150000D03*
%TO.P,U2,4,2_OUT2*%
%TO.N,/JOY_LEFT_BTN*%
X139700000Y-59690000D03*
%TO.P,U2,5,3_LRCLK2*%
%TO.N,/JOY_RIGHT_V*%
X139700000Y-62230000D03*
%TO.P,U2,6,4_BCLK2*%
%TO.N,/JOY_RIGHT_H*%
X139700000Y-64770000D03*
%TO.P,U2,7,5_IN2*%
%TO.N,/JOY_RIGHT_BTN*%
X139700000Y-67310000D03*
%TO.P,U2,8,6_OUT1D*%
%TO.N,unconnected-(U2-Pad8)*%
X139700000Y-69850000D03*
%TO.P,U2,9,7_RX2_OUT1A*%
%TO.N,unconnected-(U2-Pad9)*%
X139700000Y-72390000D03*
%TO.P,U2,10,8_TX2_IN1*%
%TO.N,/LORA_INT*%
X139700000Y-74930000D03*
%TO.P,U2,11,9_OUT1C*%
%TO.N,/LORA_RST*%
X139700000Y-77470000D03*
%TO.P,U2,12,10_CS_MQSR*%
%TO.N,/LORA_CS*%
X139700000Y-80010000D03*
%TO.P,U2,13,11_MOSI_CTX1*%
%TO.N,/LORA_MOSI*%
X139700000Y-82550000D03*
%TO.P,U2,14,12_MISO_MQSL*%
%TO.N,/LORA_MISO*%
X139700000Y-85090000D03*
%TO.P,U2,15,VBAT*%
%TO.N,Net-(JT1-Pad1)*%
X142240000Y-85090000D03*
%TO.P,U2,16,3V3*%
%TO.N,+3V3*%
X144780000Y-85090000D03*
%TO.P,U2,17,GND*%
%TO.N,GND*%
X147320000Y-85090000D03*
%TO.P,U2,18,PROGRAM*%
%TO.N,unconnected-(U2-Pad18)*%
X149860000Y-85090000D03*
%TO.P,U2,19,ON_OFF*%
%TO.N,unconnected-(U2-Pad19)*%
X152400000Y-85090000D03*
%TO.P,U2,20,13_SCK_CRX1_LED*%
%TO.N,/LORA_SCK*%
X154940000Y-85090000D03*
%TO.P,U2,21,14_A0_TX3_SPDIF_OUT*%
%TO.N,unconnected-(U2-Pad21)*%
X154940000Y-82550000D03*
%TO.P,U2,22,15_A1_RX3_SPDIF_IN*%
%TO.N,unconnected-(U2-Pad22)*%
X154940000Y-80010000D03*
%TO.P,U2,23,16_A2_RX4_SCL1*%
%TO.N,/OLED_SDA*%
X154940000Y-77470000D03*
%TO.P,U2,24,17_A3_TX4_SDA1*%
%TO.N,/OLED_SCL*%
X154940000Y-74930000D03*
%TO.P,U2,25,18_A4_SDA0*%
%TO.N,/BTN_LEFT*%
X154940000Y-72390000D03*
%TO.P,U2,26,19_A5_SCL0*%
%TO.N,/BTN_UP*%
X154940000Y-69850000D03*
%TO.P,U2,27,20_A6_TX5_LRCLK1*%
%TO.N,/BTN_RIGHT*%
X154940000Y-67310000D03*
%TO.P,U2,28,21_A7_RX5_BCLK1*%
%TO.N,/BTN_DOWN*%
X154940000Y-64770000D03*
%TO.P,U2,29,22_A8_CTX1*%
%TO.N,unconnected-(U2-Pad29)*%
X154940000Y-62230000D03*
%TO.P,U2,30,23_A9_CRX1_MCLK1*%
%TO.N,unconnected-(U2-Pad30)*%
X154940000Y-59690000D03*
%TO.P,U2,31,3V3*%
%TO.N,+3V3*%
X154940000Y-57150000D03*
%TO.P,U2,32,GND*%
%TO.N,GND*%
X154940000Y-54610000D03*
%TO.P,U2,33,VIN*%
%TO.N,+5V*%
X154940000Y-52070000D03*
%TO.P,U2,34,VUSB*%
%TO.N,Net-(JT2-Pad1)*%
X152400000Y-54610000D03*
%TO.P,U2,35,24_A10_TX6_SCL2*%
%TO.N,unconnected-(U2-Pad35)*%
X152400000Y-80010000D03*
%TO.P,U2,36,25_A11_RX6_SDA2*%
%TO.N,unconnected-(U2-Pad36)*%
X152400000Y-77470000D03*
%TO.P,U2,37,26_A12_MOSI1*%
%TO.N,unconnected-(U2-Pad37)*%
X149860000Y-80010000D03*
%TO.P,U2,38,27_A13_SCK1*%
%TO.N,unconnected-(U2-Pad38)*%
X149860000Y-77470000D03*
%TO.P,U2,39,28_RX7*%
%TO.N,unconnected-(U2-Pad39)*%
X147320000Y-80010000D03*
%TO.P,U2,40,29_TX7*%
%TO.N,unconnected-(U2-Pad40)*%
X147320000Y-77470000D03*
%TO.P,U2,41,30_CRX3*%
%TO.N,unconnected-(U2-Pad41)*%
X144780000Y-80010000D03*
%TO.P,U2,42,31_CTX3*%
%TO.N,unconnected-(U2-Pad42)*%
X144780000Y-77470000D03*
%TO.P,U2,43,32_OUT1B*%
%TO.N,unconnected-(U2-Pad43)*%
X142240000Y-80010000D03*
%TO.P,U2,44,33_MCLK2*%
%TO.N,unconnected-(U2-Pad44)*%
X142240000Y-77470000D03*
%TD*%
D16*
%TO.P,R4,1*%
%TO.N,+3V3*%
X171720000Y-86360000D03*
%TO.P,R4,2*%
%TO.N,/BTN_DOWN*%
X173720000Y-86360000D03*
%TD*%
D14*
%TO.P,C1,1*%
%TO.N,/BTN_UP*%
X172720000Y-55647500D03*
%TO.P,C1,2*%
%TO.N,GND*%
X172720000Y-53572500D03*
%TD*%
D16*
%TO.P,R6,1*%
%TO.N,+3V3*%
X176530000Y-97790000D03*
%TO.P,R6,2*%
%TO.N,/JOY_RIGHT_BTN*%
X178530000Y-97790000D03*
%TD*%
%TO.P,R3,1*%
%TO.N,+3V3*%
X184420000Y-72390000D03*
%TO.P,R3,2*%
%TO.N,/BTN_RIGHT*%
X186420000Y-72390000D03*
%TD*%
%TO.P,R1,1*%
%TO.N,+3V3*%
X171720000Y-58420000D03*
%TO.P,R1,2*%
%TO.N,/BTN_UP*%
X173720000Y-58420000D03*
%TD*%
D22*
%TO.N,+3V3*%
X172207700Y-60235500D03*
X181610000Y-72390000D03*
%TO.N,GND*%
X110490000Y-66040000D03*
X161290000Y-55880000D03*
X143510000Y-82550000D03*
%TO.N,/LORA_SCK*%
X154940000Y-90170000D03*
%TO.N,/JOY_LEFT_H*%
X137160000Y-60414500D03*
%TO.N,/JOY_RIGHT_V*%
X158750000Y-80010000D03*
X158750000Y-82550000D03*
%TO.N,/JOY_RIGHT_BTN*%
X157480000Y-81280000D03*
X151130000Y-81280000D03*
X170180000Y-90170000D03*
%TD*%
D23*
%TO.N,Net-(JT1-Pad1)*%
X140970000Y-53976396D02*
X140970000Y-83820000D01*
X140333604Y-53340000D02*
X140970000Y-53976396D01*
X133350000Y-53340000D02*
X140333604Y-53340000D01*
X140970000Y-83820000D02*
X142240000Y-85090000D01*
X132080000Y-52070000D02*
X133350000Y-53340000D01*
%TO.N,+3V3*%
X163830000Y-105660000D02*
X152650000Y-116840000D01*
X163830000Y-100852500D02*
X163830000Y-105660000D01*
X152650000Y-116840000D02*
X135890000Y-116840000D01*
X163830000Y-100852500D02*
X163830000Y-94250000D01*
X120920000Y-62445023D02*
X120920000Y-59690000D01*
X171720000Y-58420000D02*
X171720000Y-59747800D01*
X163830000Y-94250000D02*
X165235000Y-92845000D01*
X110490000Y-73660000D02*
X110490000Y-69850000D01*
X165235000Y-92845000D02*
X170450000Y-87630000D01*
X144780000Y-86360000D02*
X144780000Y-85090000D01*
X171720000Y-86360000D02*
X170450000Y-87630000D01*
X146050000Y-87630000D02*
X144780000Y-86360000D01*
X118320001Y-65045022D02*
X120920000Y-62445023D01*
X166822500Y-92845000D02*
X165235000Y-92845000D01*
X189230000Y-115252500D02*
X181610000Y-107632500D01*
X176530000Y-97790000D02*
X171767500Y-97790000D01*
X144780000Y-85090000D02*
X148445000Y-81425000D01*
X171608750Y-97631250D02*
X166822500Y-92845000D01*
X110490000Y-69850000D02*
X115294978Y-65045022D01*
X148445000Y-63645000D02*
X154940000Y-57150000D01*
X181610000Y-72390000D02*
X178800000Y-72390000D01*
X171720000Y-59747800D02*
X172207700Y-60235500D01*
X171767500Y-97790000D02*
X171608750Y-97631250D01*
X170450000Y-87630000D02*
X146050000Y-87630000D01*
X115294978Y-65045022D02*
X118320001Y-65045022D01*
X189230000Y-120332500D02*
X189230000Y-115252500D01*
X181610000Y-107632500D02*
X171608750Y-97631250D01*
X118110000Y-81280000D02*
X118110000Y-86360000D01*
X170450000Y-57150000D02*
X171720000Y-58420000D01*
X184420000Y-72390000D02*
X181610000Y-72390000D01*
X110490000Y-73660000D02*
X118110000Y-81280000D01*
X148445000Y-81425000D02*
X148445000Y-63645000D01*
X154940000Y-57150000D02*
X170450000Y-57150000D01*
%TO.N,GND*%
X156210000Y-54610000D02*
X157480000Y-53340000D01*
X177607500Y-67350000D02*
X173900000Y-67350000D01*
X196810000Y-81320000D02*
X204470000Y-73660000D01*
X177800000Y-67542500D02*
X177607500Y-67350000D01*
X143510000Y-82550000D02*
X143510000Y-55880000D01*
X201840000Y-67350000D02*
X201840000Y-66080000D01*
X176640000Y-53380000D02*
X189140000Y-53380000D01*
X143510000Y-55880000D02*
X139700000Y-52070000D01*
X110722500Y-63500000D02*
X110722500Y-65807500D01*
X204470000Y-69980000D02*
X201840000Y-67350000D01*
X201840000Y-66080000D02*
X189140000Y-53380000D01*
X154940000Y-54610000D02*
X156210000Y-54610000D01*
X172912500Y-53380000D02*
X176640000Y-53380000D01*
X172720000Y-81512500D02*
X172912500Y-81320000D01*
X189340000Y-67350000D02*
X201840000Y-67350000D01*
X185420000Y-67542500D02*
X185612500Y-67350000D01*
X173900000Y-67350000D02*
X161400000Y-67350000D01*
X177800000Y-67542500D02*
X185420000Y-67542500D01*
X185612500Y-67350000D02*
X189340000Y-67350000D01*
X176640000Y-81320000D02*
X189140000Y-81320000D01*
X157480000Y-53340000D02*
X160020000Y-53340000D01*
X172912500Y-81320000D02*
X176640000Y-81320000D01*
X184150000Y-103505000D02*
X180572500Y-99927500D01*
X189140000Y-81320000D02*
X196810000Y-81320000D01*
X172720000Y-53572500D02*
X172912500Y-53380000D01*
X204470000Y-73660000D02*
X204470000Y-69980000D01*
X180572500Y-99927500D02*
X180572500Y-97790000D01*
X110722500Y-65807500D02*
X110490000Y-66040000D01*
X161290000Y-54610000D02*
X161290000Y-55880000D01*
X160020000Y-53340000D02*
X161290000Y-54610000D01*
%TO.N,+5V*%
X156675000Y-52070000D02*
X157480000Y-51265000D01*
X154940000Y-52070000D02*
X156675000Y-52070000D01*
%TO.N,/LORA_INT*%
X135890000Y-109220000D02*
X134620000Y-107950000D01*
X134620000Y-80010000D02*
X139700000Y-74930000D01*
X134620000Y-107950000D02*
X134620000Y-80010000D01*
%TO.N,/LORA_SCK*%
X152400000Y-90170000D02*
X135890000Y-106680000D01*
X154940000Y-90170000D02*
X152400000Y-90170000D01*
%TO.N,/LORA_MISO*%
X135890000Y-104140000D02*
X139700000Y-100330000D01*
X139700000Y-100330000D02*
X139700000Y-85090000D01*
%TO.N,/LORA_MOSI*%
X135890000Y-101600000D02*
X138430000Y-99060000D01*
X138430000Y-99060000D02*
X138430000Y-83820000D01*
X138430000Y-83820000D02*
X139700000Y-82550000D01*
%TO.N,/LORA_CS*%
X137160000Y-82550000D02*
X137160000Y-97790000D01*
X137160000Y-97790000D02*
X135890000Y-99060000D01*
X139700000Y-80010000D02*
X137160000Y-82550000D01*
%TO.N,/LORA_RST*%
X135890000Y-81280000D02*
X139700000Y-77470000D01*
X135890000Y-96520000D02*
X135890000Y-81280000D01*
%TO.N,/JOY_LEFT_V*%
X109276000Y-74986000D02*
X109276000Y-62174000D01*
X109276000Y-62174000D02*
X116840000Y-54610000D01*
X116840000Y-54610000D02*
X139700000Y-54610000D01*
X110490000Y-76200000D02*
X109276000Y-74986000D01*
%TO.N,/JOY_LEFT_H*%
X137160000Y-69850000D02*
X137160000Y-60414500D01*
X120650000Y-86360000D02*
X137160000Y-69850000D01*
%TO.N,/JOY_LEFT_BTN*%
X121650000Y-58420000D02*
X122920000Y-59690000D01*
X119380000Y-58420000D02*
X121650000Y-58420000D01*
X117475000Y-63500000D02*
X117475000Y-60325000D01*
X122920000Y-59690000D02*
X139700000Y-59690000D01*
X112797500Y-63500000D02*
X117475000Y-63500000D01*
X117475000Y-60325000D02*
X119380000Y-58420000D01*
%TO.N,/JOY_RIGHT_V*%
X158750000Y-82550000D02*
X158750000Y-80010000D01*
%TO.N,/JOY_RIGHT_H*%
X133350000Y-107950000D02*
X133350000Y-78740000D01*
X138430000Y-73660000D02*
X138430000Y-66040000D01*
X133350000Y-78740000D02*
X138430000Y-73660000D01*
X190182500Y-121920000D02*
X137160000Y-121920000D01*
X137160000Y-121920000D02*
X134620000Y-119380000D01*
X138430000Y-66040000D02*
X139700000Y-64770000D01*
X191770000Y-120332500D02*
X190182500Y-121920000D01*
X134620000Y-109220000D02*
X133350000Y-107950000D01*
X134620000Y-119380000D02*
X134620000Y-109220000D01*
%TO.N,/JOY_RIGHT_BTN*%
X157480000Y-81280000D02*
X151130000Y-81280000D01*
X179800000Y-96520000D02*
X181610000Y-96520000D01*
X182647500Y-97557500D02*
X182647500Y-97790000D01*
X181610000Y-96520000D02*
X182647500Y-97557500D01*
X188595000Y-97472500D02*
X182965000Y-97472500D01*
X178530000Y-97790000D02*
X179800000Y-96520000D01*
X182965000Y-97472500D02*
X182647500Y-97790000D01*
X178530000Y-97790000D02*
X170910000Y-90170000D01*
X170910000Y-90170000D02*
X170180000Y-90170000D01*
%TO.N,/BTN_UP*%
X172720000Y-57420000D02*
X173720000Y-58420000D01*
X173720000Y-58420000D02*
X173760000Y-58380000D01*
X176640000Y-58380000D02*
X189140000Y-58380000D01*
X172720000Y-60960000D02*
X173720000Y-59960000D01*
X154940000Y-69850000D02*
X163830000Y-60960000D01*
X173760000Y-58380000D02*
X176640000Y-58380000D01*
X163830000Y-60960000D02*
X172720000Y-60960000D01*
X172720000Y-55647500D02*
X172720000Y-57420000D01*
X173720000Y-59960000D02*
X173720000Y-58420000D01*
%TO.N,/BTN_LEFT*%
X176800000Y-70617500D02*
X177800000Y-69617500D01*
X173900000Y-72350000D02*
X176760000Y-72350000D01*
X161400000Y-72350000D02*
X173900000Y-72350000D01*
X176800000Y-72390000D02*
X176800000Y-70617500D01*
X176760000Y-72350000D02*
X176800000Y-72390000D01*
X161360000Y-72390000D02*
X161400000Y-72350000D01*
X154940000Y-72390000D02*
X161360000Y-72390000D01*
%TO.N,/BTN_RIGHT*%
X186420000Y-70617500D02*
X185420000Y-69617500D01*
X153670000Y-68580000D02*
X153670000Y-72710991D01*
X186460000Y-72350000D02*
X186420000Y-72390000D01*
X189340000Y-72350000D02*
X186460000Y-72350000D01*
X185150000Y-73660000D02*
X186420000Y-72390000D01*
X154619009Y-73660000D02*
X185150000Y-73660000D01*
X189340000Y-72350000D02*
X201840000Y-72350000D01*
X154940000Y-67310000D02*
X153670000Y-68580000D01*
X186420000Y-72390000D02*
X186420000Y-70617500D01*
X153670000Y-72710991D02*
X154619009Y-73660000D01*
%TO.N,/BTN_DOWN*%
X154619009Y-76200000D02*
X165332500Y-76200000D01*
X154940000Y-64770000D02*
X152400000Y-67310000D01*
X173760000Y-86320000D02*
X176640000Y-86320000D01*
X172720000Y-83587500D02*
X172720000Y-85360000D01*
X165332500Y-76200000D02*
X172720000Y-83587500D01*
X172720000Y-85360000D02*
X173720000Y-86360000D01*
X176640000Y-86320000D02*
X189140000Y-86320000D01*
X173720000Y-86360000D02*
X173760000Y-86320000D01*
X152400000Y-73980991D02*
X154619009Y-76200000D01*
X152400000Y-67310000D02*
X152400000Y-73980991D01*
%TD*%
M02*
