M48
; DRILL file {KiCad (6.0.7)} date Mon Mar 27 09:38:50 2023
; FORMAT={-:-/ absolute / inch / decimal}
; #@! TF.CreationDate,2023-03-27T09:38:50-04:00
; #@! TF.GenerationSoftware,Kicad,Pcbnew,(6.0.7)
; #@! TF.FileFunction,Plated,1,2,PTH
FMAT,2
INCH
; #@! TA.AperFunction,Plated,PTH,ViaDrill
T1C0.0157
; #@! TA.AperFunction,Plated,PTH,ComponentDrill
T2C0.0300
; #@! TA.AperFunction,Plated,PTH,ComponentDrill
T3C0.0350
; #@! TA.AperFunction,Plated,PTH,ComponentDrill
T4C0.0354
; #@! TA.AperFunction,Plated,PTH,ComponentDrill
T5C0.0394
; #@! TA.AperFunction,Plated,PTH,ComponentDrill
T6C0.0433
; #@! TA.AperFunction,Plated,PTH,ComponentDrill
T7C0.0512
; #@! TA.AperFunction,Plated,PTH,ComponentDrill
T8C0.0550
; #@! TA.AperFunction,Plated,PTH,ComponentDrill
T9C0.0984
%
G90
G05
T1
X4.35Y-2.6
X5.4Y-2.3785
X5.65Y-3.25
X5.95Y-3.2
X6.1Y-3.55
X6.2Y-3.2
X6.25Y-3.15
X6.25Y-3.25
X6.35Y-2.2
X6.7Y-3.55
X6.7798Y-2.3715
X7.15Y-2.85
T2
X4.35Y-4.2
X4.35Y-4.3
X4.35Y-4.4
X4.35Y-4.5
X4.35Y-4.6
X5.35Y-3.8
X5.35Y-3.9
X5.35Y-4.0
X5.35Y-4.1
X5.35Y-4.2
X5.35Y-4.3
X5.35Y-4.4
X5.35Y-4.5
X5.35Y-4.6
T3
X4.35Y-2.9
X4.35Y-3.0
X4.35Y-3.1
X4.65Y-3.4
X4.75Y-3.4
X4.85Y-3.4
X7.15Y-4.2375
X7.15Y-4.3375
X7.15Y-4.4375
X7.45Y-4.7375
X7.55Y-4.7375
X7.65Y-4.7375
T4
X4.625Y-2.5
X4.625Y-2.7
X4.875Y-2.5
X4.875Y-2.7
X7.425Y-3.8375
X7.425Y-4.0375
X7.675Y-3.8375
X7.675Y-4.0375
T5
X5.2Y-2.05
X5.85Y-3.9706
X5.95Y-3.9706
X6.05Y-3.9706
X6.15Y-3.9706
X6.25Y-3.9706
X6.35Y-3.9706
X6.45Y-3.9706
X6.5Y-2.05
X6.55Y-3.9706
T6
X5.5Y-2.05
X5.5Y-2.15
X5.5Y-2.25
X5.5Y-2.35
X5.5Y-2.45
X5.5Y-2.55
X5.5Y-2.65
X5.5Y-2.75
X5.5Y-2.85
X5.5Y-2.95
X5.5Y-3.05
X5.5Y-3.15
X5.5Y-3.25
X5.5Y-3.35
X5.6Y-3.05
X5.6Y-3.15
X5.6Y-3.35
X5.7Y-3.05
X5.7Y-3.15
X5.7Y-3.35
X5.8Y-3.05
X5.8Y-3.15
X5.8Y-3.35
X5.9Y-3.05
X5.9Y-3.15
X5.9Y-3.35
X6.0Y-2.15
X6.0Y-3.05
X6.0Y-3.15
X6.0Y-3.35
X6.1Y-2.05
X6.1Y-2.15
X6.1Y-2.25
X6.1Y-2.35
X6.1Y-2.45
X6.1Y-2.55
X6.1Y-2.65
X6.1Y-2.75
X6.1Y-2.85
X6.1Y-2.95
X6.1Y-3.05
X6.1Y-3.15
X6.1Y-3.25
X6.1Y-3.35
T7
X6.3543Y-2.6516
X6.3543Y-2.8484
X6.8465Y-2.6516
X6.8465Y-2.8484
X6.9543Y-2.1016
X6.9543Y-2.2984
X6.9543Y-3.2016
X6.9543Y-3.3984
X7.4465Y-2.1016
X7.4465Y-2.2984
X7.4465Y-3.2016
X7.4465Y-3.3984
X7.4543Y-2.6516
X7.4543Y-2.8484
X7.9465Y-2.6516
X7.9465Y-2.8484
T8
X4.45Y-2.7375
X4.45Y-3.2625
X5.05Y-2.7375
X5.05Y-3.2625
X7.25Y-4.075
X7.25Y-4.6
X7.85Y-4.075
X7.85Y-4.6
T9
X5.725Y-3.9706
X5.725Y-5.0206
X6.675Y-3.9706
X6.675Y-5.0206
T0
M30
