%TF.GenerationSoftware,KiCad,Pcbnew,(6.0.7-1)-1*%
%TF.CreationDate,2023-03-26T15:29:43-04:00*%
%TF.ProjectId,RC_PCB,52435f50-4342-42e6-9b69-6361645f7063,rev?*%
%TF.SameCoordinates,Original*%
%TF.FileFunction,Soldermask,Top*%
%TF.FilePolarity,Negative*%
%FSLAX46Y46*%
G04 Gerber Fmt 4.6, Leading zero omitted, Abs format (unit mm)*
G04 Created by KiCad (PCBNEW (6.0.7-1)-1) date 2023-03-26 15:29:43*
%MOMM*%
%LPD*%
G01*
G04 APERTURE LIST*
G04 Aperture macros list*
%AMRoundRect*
0 Rectangle with rounded corners*
0 $1 Rounding radius*
0 $2 $3 $4 $5 $6 $7 $8 $9 X,Y pos of 4 corners*
0 Add a 4 corners polygon primitive as box body*
4,1,4,$2,$3,$4,$5,$6,$7,$8,$9,$2,$3,0*
0 Add four circle primitives for the rounded corners*
1,1,$1+$1,$2,$3*
1,1,$1+$1,$4,$5*
1,1,$1+$1,$6,$7*
1,1,$1+$1,$8,$9*
0 Add four rect primitives between the rounded corners*
20,1,$1+$1,$2,$3,$4,$5,0*
20,1,$1+$1,$4,$5,$6,$7,0*
20,1,$1+$1,$6,$7,$8,$9,0*
20,1,$1+$1,$8,$9,$2,$3,0*%
G04 Aperture macros list end*
%ADD10C,1.930400*%
%ADD11C,3.352400*%
%ADD12RoundRect,0.250000X0.475000X-0.337500X0.475000X0.337500X-0.475000X0.337500X-0.475000X-0.337500X0*%
%ADD13RoundRect,0.250000X0.337500X0.475000X-0.337500X0.475000X-0.337500X-0.475000X0.337500X-0.475000X0*%
%ADD14RoundRect,0.250000X-0.350000X-0.450000X0.350000X-0.450000X0.350000X0.450000X-0.350000X0.450000X0*%
%ADD15R,1.700000X1.700000*%
%ADD16O,3.048000X1.850000*%
%ADD17RoundRect,0.250000X-0.475000X0.337500X-0.475000X-0.337500X0.475000X-0.337500X0.475000X0.337500X0*%
%ADD18C,3.200000*%
%ADD19C,1.778000*%
%ADD20C,2.286000*%
%ADD21RoundRect,0.250000X0.350000X0.450000X-0.350000X0.450000X-0.350000X-0.450000X0.350000X-0.450000X0*%
%ADD22C,1.524000*%
%ADD23C,1.600000*%
%ADD24C,0.800000*%
G04 APERTURE END LIST*
D10*
%TO.C,U3*%
X148590000Y-105660000D03*
X151130000Y-105660000D03*
X153670000Y-105660000D03*
X156210000Y-105660000D03*
X158750000Y-105660000D03*
X161290000Y-105660000D03*
X163830000Y-105660000D03*
X166370000Y-105660000D03*
D11*
X173480000Y-128090000D03*
X173480000Y-105590000D03*
X141480000Y-105590000D03*
X141480000Y-128090000D03*
%TD*%
D12*
%TO.C,C2*%
X177800000Y-69617500D03*
X177800000Y-67542500D03*
%TD*%
D13*
%TO.C,C6*%
X112797500Y-63500000D03*
X110722500Y-63500000D03*
%TD*%
D14*
%TO.C,R5*%
X120920000Y-59690000D03*
X122920000Y-59690000D03*
%TD*%
D15*
%TO.C,JT1*%
X165100000Y-52070000D03*
%TD*%
D12*
%TO.C,C5*%
X172720000Y-83587500D03*
X172720000Y-81512500D03*
%TD*%
D16*
%TO.C,SW4*%
X176640000Y-81320000D03*
X189140000Y-81320000D03*
X189140000Y-86320000D03*
X176640000Y-86320000D03*
%TD*%
D17*
%TO.C,C4*%
X157480000Y-51265000D03*
X157480000Y-53340000D03*
%TD*%
D12*
%TO.C,C3*%
X185420000Y-69617500D03*
X185420000Y-67542500D03*
%TD*%
D18*
%TO.C,H3*%
X200660000Y-53340000D03*
%TD*%
D19*
%TO.C,U4*%
X117475000Y-63500000D03*
X123825000Y-63500000D03*
X117475000Y-68580000D03*
X123825000Y-68580000D03*
X118110000Y-86360000D03*
X120650000Y-86360000D03*
X123190000Y-86360000D03*
D20*
X113030000Y-69532500D03*
X113030000Y-82867500D03*
X128270000Y-82867500D03*
X128270000Y-69532500D03*
D19*
X110490000Y-73660000D03*
X110490000Y-76200000D03*
X110490000Y-78740000D03*
%TD*%
D16*
%TO.C,SW2*%
X161400000Y-67350000D03*
X173900000Y-67350000D03*
X161400000Y-72350000D03*
X173900000Y-72350000D03*
%TD*%
%TO.C,SW3*%
X201840000Y-67350000D03*
X189340000Y-67350000D03*
X201840000Y-72350000D03*
X189340000Y-72350000D03*
%TD*%
D19*
%TO.C,U5*%
X188595000Y-97472500D03*
X194945000Y-97472500D03*
X188595000Y-102552500D03*
X194945000Y-102552500D03*
X189230000Y-120332500D03*
X191770000Y-120332500D03*
X194310000Y-120332500D03*
D20*
X184150000Y-103505000D03*
X184150000Y-116840000D03*
X199390000Y-116840000D03*
X199390000Y-103505000D03*
D19*
X181610000Y-107632500D03*
X181610000Y-110172500D03*
X181610000Y-112712500D03*
%TD*%
D18*
%TO.C,H3*%
X111760000Y-127000000D03*
%TD*%
D16*
%TO.C,SW1*%
X176640000Y-53380000D03*
X189140000Y-53380000D03*
X176640000Y-58380000D03*
X189140000Y-58380000D03*
%TD*%
D18*
%TO.C,H3*%
X111760000Y-53340000D03*
%TD*%
D21*
%TO.C,R2*%
X178800000Y-72390000D03*
X176800000Y-72390000D03*
%TD*%
D22*
%TO.C,U1*%
X135890000Y-116840000D03*
X135890000Y-114300000D03*
X135890000Y-111760000D03*
X135890000Y-109220000D03*
X135890000Y-106680000D03*
X135890000Y-104140000D03*
X135890000Y-101600000D03*
X135890000Y-99060000D03*
X135890000Y-96520000D03*
X110490000Y-116840000D03*
X110490000Y-114300000D03*
X110490000Y-111760000D03*
X110490000Y-109220000D03*
X110490000Y-106680000D03*
%TD*%
D13*
%TO.C,C7*%
X182647500Y-97790000D03*
X180572500Y-97790000D03*
%TD*%
D23*
%TO.C,U2*%
X139700000Y-52070000D03*
X139700000Y-54610000D03*
X139700000Y-57150000D03*
X139700000Y-59690000D03*
X139700000Y-62230000D03*
X139700000Y-64770000D03*
X139700000Y-67310000D03*
X139700000Y-69850000D03*
X139700000Y-72390000D03*
X139700000Y-74930000D03*
X139700000Y-77470000D03*
X139700000Y-80010000D03*
X139700000Y-82550000D03*
X139700000Y-85090000D03*
X142240000Y-85090000D03*
X144780000Y-85090000D03*
X147320000Y-85090000D03*
X149860000Y-85090000D03*
X152400000Y-85090000D03*
X154940000Y-85090000D03*
X154940000Y-82550000D03*
X154940000Y-80010000D03*
X154940000Y-77470000D03*
X154940000Y-74930000D03*
X154940000Y-72390000D03*
X154940000Y-69850000D03*
X154940000Y-67310000D03*
X154940000Y-64770000D03*
X154940000Y-62230000D03*
X154940000Y-59690000D03*
X154940000Y-57150000D03*
X154940000Y-54610000D03*
X154940000Y-52070000D03*
X152400000Y-54610000D03*
X152400000Y-80010000D03*
X152400000Y-77470000D03*
X149860000Y-80010000D03*
X149860000Y-77470000D03*
X147320000Y-80010000D03*
X147320000Y-77470000D03*
X144780000Y-80010000D03*
X144780000Y-77470000D03*
X142240000Y-80010000D03*
X142240000Y-77470000D03*
%TD*%
D18*
%TO.C,H3*%
X200660000Y-127000000D03*
%TD*%
D14*
%TO.C,R4*%
X171720000Y-86360000D03*
X173720000Y-86360000D03*
%TD*%
D12*
%TO.C,C1*%
X172720000Y-55647500D03*
X172720000Y-53572500D03*
%TD*%
D14*
%TO.C,R6*%
X176530000Y-97790000D03*
X178530000Y-97790000D03*
%TD*%
%TO.C,R3*%
X184420000Y-72390000D03*
X186420000Y-72390000D03*
%TD*%
%TO.C,R1*%
X171720000Y-58420000D03*
X173720000Y-58420000D03*
%TD*%
D24*
X172207700Y-60235500D03*
X181610000Y-72390000D03*
X110490000Y-66040000D03*
X161290000Y-55880000D03*
X143510000Y-82550000D03*
X154940000Y-90170000D03*
X137160000Y-60414500D03*
X158750000Y-80010000D03*
X158750000Y-82550000D03*
X157480000Y-81280000D03*
X151130000Y-81280000D03*
X170180000Y-90170000D03*
M02*
