%TF.GenerationSoftware,KiCad,Pcbnew,(6.0.7-1)-1*%
%TF.CreationDate,2023-03-26T15:29:43-04:00*%
%TF.ProjectId,RC_PCB,52435f50-4342-42e6-9b69-6361645f7063,rev?*%
%TF.SameCoordinates,Original*%
%TF.FileFunction,Soldermask,Bot*%
%TF.FilePolarity,Negative*%
%FSLAX46Y46*%
G04 Gerber Fmt 4.6, Leading zero omitted, Abs format (unit mm)*
G04 Created by KiCad (PCBNEW (6.0.7-1)-1) date 2023-03-26 15:29:43*
%MOMM*%
%LPD*%
G01*
G04 APERTURE LIST*
%ADD10C,1.930400*%
%ADD11C,3.352400*%
%ADD12R,1.700000X1.700000*%
%ADD13O,3.048000X1.850000*%
%ADD14C,3.200000*%
%ADD15C,1.778000*%
%ADD16C,2.286000*%
%ADD17C,1.524000*%
%ADD18C,1.600000*%
%ADD19C,0.800000*%
G04 APERTURE END LIST*
D10*
%TO.C,U3*%
X148590000Y-105660000D03*
X151130000Y-105660000D03*
X153670000Y-105660000D03*
X156210000Y-105660000D03*
X158750000Y-105660000D03*
X161290000Y-105660000D03*
X163830000Y-105660000D03*
X166370000Y-105660000D03*
D11*
X173480000Y-128090000D03*
X173480000Y-105590000D03*
X141480000Y-105590000D03*
X141480000Y-128090000D03*
%TD*%
D12*
%TO.C,JT1*%
X165100000Y-52070000D03*
%TD*%
D13*
%TO.C,SW4*%
X176640000Y-81320000D03*
X189140000Y-81320000D03*
X189140000Y-86320000D03*
X176640000Y-86320000D03*
%TD*%
D14*
%TO.C,H3*%
X200660000Y-53340000D03*
%TD*%
D15*
%TO.C,U4*%
X117475000Y-63500000D03*
X123825000Y-63500000D03*
X117475000Y-68580000D03*
X123825000Y-68580000D03*
X118110000Y-86360000D03*
X120650000Y-86360000D03*
X123190000Y-86360000D03*
D16*
X113030000Y-69532500D03*
X113030000Y-82867500D03*
X128270000Y-82867500D03*
X128270000Y-69532500D03*
D15*
X110490000Y-73660000D03*
X110490000Y-76200000D03*
X110490000Y-78740000D03*
%TD*%
D13*
%TO.C,SW2*%
X161400000Y-67350000D03*
X173900000Y-67350000D03*
X161400000Y-72350000D03*
X173900000Y-72350000D03*
%TD*%
%TO.C,SW3*%
X201840000Y-67350000D03*
X189340000Y-67350000D03*
X201840000Y-72350000D03*
X189340000Y-72350000D03*
%TD*%
D15*
%TO.C,U5*%
X188595000Y-97472500D03*
X194945000Y-97472500D03*
X188595000Y-102552500D03*
X194945000Y-102552500D03*
X189230000Y-120332500D03*
X191770000Y-120332500D03*
X194310000Y-120332500D03*
D16*
X184150000Y-103505000D03*
X184150000Y-116840000D03*
X199390000Y-116840000D03*
X199390000Y-103505000D03*
D15*
X181610000Y-107632500D03*
X181610000Y-110172500D03*
X181610000Y-112712500D03*
%TD*%
D14*
%TO.C,H3*%
X111760000Y-127000000D03*
%TD*%
D13*
%TO.C,SW1*%
X176640000Y-53380000D03*
X189140000Y-53380000D03*
X176640000Y-58380000D03*
X189140000Y-58380000D03*
%TD*%
D14*
%TO.C,H3*%
X111760000Y-53340000D03*
%TD*%
D17*
%TO.C,U1*%
X135890000Y-116840000D03*
X135890000Y-114300000D03*
X135890000Y-111760000D03*
X135890000Y-109220000D03*
X135890000Y-106680000D03*
X135890000Y-104140000D03*
X135890000Y-101600000D03*
X135890000Y-99060000D03*
X135890000Y-96520000D03*
X110490000Y-116840000D03*
X110490000Y-114300000D03*
X110490000Y-111760000D03*
X110490000Y-109220000D03*
X110490000Y-106680000D03*
%TD*%
D18*
%TO.C,U2*%
X139700000Y-52070000D03*
X139700000Y-54610000D03*
X139700000Y-57150000D03*
X139700000Y-59690000D03*
X139700000Y-62230000D03*
X139700000Y-64770000D03*
X139700000Y-67310000D03*
X139700000Y-69850000D03*
X139700000Y-72390000D03*
X139700000Y-74930000D03*
X139700000Y-77470000D03*
X139700000Y-80010000D03*
X139700000Y-82550000D03*
X139700000Y-85090000D03*
X142240000Y-85090000D03*
X144780000Y-85090000D03*
X147320000Y-85090000D03*
X149860000Y-85090000D03*
X152400000Y-85090000D03*
X154940000Y-85090000D03*
X154940000Y-82550000D03*
X154940000Y-80010000D03*
X154940000Y-77470000D03*
X154940000Y-74930000D03*
X154940000Y-72390000D03*
X154940000Y-69850000D03*
X154940000Y-67310000D03*
X154940000Y-64770000D03*
X154940000Y-62230000D03*
X154940000Y-59690000D03*
X154940000Y-57150000D03*
X154940000Y-54610000D03*
X154940000Y-52070000D03*
X152400000Y-54610000D03*
X152400000Y-80010000D03*
X152400000Y-77470000D03*
X149860000Y-80010000D03*
X149860000Y-77470000D03*
X147320000Y-80010000D03*
X147320000Y-77470000D03*
X144780000Y-80010000D03*
X144780000Y-77470000D03*
X142240000Y-80010000D03*
X142240000Y-77470000D03*
%TD*%
D14*
%TO.C,H3*%
X200660000Y-127000000D03*
%TD*%
D19*
X172207700Y-60235500D03*
X181610000Y-72390000D03*
X110490000Y-66040000D03*
X161290000Y-55880000D03*
X143510000Y-82550000D03*
X154940000Y-90170000D03*
X137160000Y-60414500D03*
X158750000Y-80010000D03*
X158750000Y-82550000D03*
X157480000Y-81280000D03*
X151130000Y-81280000D03*
X170180000Y-90170000D03*
M02*
